<?xml version="1.0" encoding="utf-8" standalone="no"?>
<!DOCTYPE svg PUBLIC "-//W3C//DTD SVG 1.1//EN"
  "http://www.w3.org/Graphics/SVG/1.1/DTD/svg11.dtd">
<!-- Created with matplotlib (https://matplotlib.org/) -->
<svg height="1152pt" version="1.1" viewBox="0 0 1152 1152" width="1152pt" xmlns="http://www.w3.org/2000/svg" xmlns:xlink="http://www.w3.org/1999/xlink">
 <defs>
  <style type="text/css">
*{stroke-linecap:butt;stroke-linejoin:round;}
  </style>
 </defs>
 <g id="figure_1">
  <g id="patch_1">
   <path d="M 0 1152 
L 1152 1152 
L 1152 0 
L 0 0 
z
" style="fill:#ffffff;"/>
  </g>
  <g id="axes_1">
   <g id="patch_2">
    <path d="M 144 541.44 
L 1036.8 541.44 
L 1036.8 138.24 
L 144 138.24 
z
" style="fill:#ffffff;"/>
   </g>
   <g id="PolyCollection_1">
    <defs>
     <path d="M 144 -696.69744 
L 144 -693.782302 
L 150.815267 -685.918092 
L 157.630534 -677.373377 
L 164.445802 -669.075527 
L 171.261069 -660.403512 
L 178.076336 -651.038826 
L 184.891603 -644.456823 
L 191.70687 -641.954863 
L 198.522137 -638.047003 
L 205.337405 -635.982552 
L 212.152672 -631.892408 
L 218.967939 -628.887273 
L 225.783206 -632.130032 
L 232.598473 -635.270173 
L 239.41374 -637.319488 
L 246.229008 -638.70688 
L 253.044275 -637.833162 
L 259.859542 -637.129522 
L 266.674809 -636.843827 
L 273.490076 -643.684837 
L 280.305344 -642.587374 
L 287.120611 -654.475613 
L 293.935878 -668.905692 
L 300.751145 -672.135502 
L 307.566412 -672.191591 
L 314.381679 -671.56959 
L 321.196947 -680.949915 
L 328.012214 -681.207677 
L 334.827481 -682.960962 
L 341.642748 -686.188344 
L 348.458015 -686.455731 
L 355.273282 -680.064474 
L 362.08855 -675.396669 
L 368.903817 -677.691633 
L 375.719084 -682.218607 
L 382.534351 -679.313318 
L 389.349618 -693.543008 
L 396.164885 -689.378499 
L 402.980153 -690.458765 
L 409.79542 -689.703444 
L 416.610687 -682.994719 
L 423.425954 -679.982092 
L 430.241221 -676.837568 
L 437.056489 -676.779766 
L 443.871756 -677.770016 
L 450.687023 -683.48722 
L 457.50229 -679.668227 
L 464.317557 -672.228425 
L 471.132824 -670.517661 
L 477.948092 -677.537716 
L 484.763359 -676.024775 
L 491.578626 -675.557218 
L 498.393893 -674.364254 
L 505.20916 -673.373657 
L 512.024427 -667.910068 
L 518.839695 -665.468008 
L 525.654962 -665.695707 
L 532.470229 -669.193551 
L 539.285496 -673.006833 
L 546.100763 -669.618044 
L 552.916031 -663.543791 
L 559.731298 -664.812195 
L 566.546565 -666.577732 
L 573.361832 -670.651237 
L 580.177099 -687.631388 
L 586.992366 -691.910369 
L 593.807634 -690.647565 
L 600.622901 -690.905925 
L 607.438168 -686.364807 
L 614.253435 -681.982523 
L 621.068702 -685.374585 
L 627.883969 -684.284572 
L 634.699237 -690.400815 
L 641.514504 -687.654095 
L 648.329771 -691.192149 
L 655.145038 -687.302997 
L 661.960305 -684.395256 
L 668.775573 -697.483437 
L 675.59084 -711.470688 
L 682.406107 -706.290779 
L 689.221374 -725.588204 
L 696.036641 -740.813375 
L 702.851908 -739.123862 
L 709.667176 -755.373292 
L 716.482443 -769.18922 
L 723.29771 -794.725676 
L 730.112977 -815.275166 
L 736.928244 -840.179401 
L 743.743511 -860.440658 
L 750.558779 -851.568184 
L 757.374046 -863.909715 
L 764.189313 -888.38041 
L 771.00458 -895.148599 
L 777.819847 -903.103099 
L 784.635115 -908.611449 
L 791.450382 -879.053912 
L 798.265649 -894.186554 
L 805.080916 -863.598589 
L 811.896183 -877.21366 
L 818.71145 -875.204919 
L 825.526718 -879.604137 
L 832.341985 -889.992091 
L 839.157252 -879.583479 
L 845.972519 -886.700577 
L 852.787786 -895.373047 
L 859.603053 -881.996438 
L 866.418321 -900.994211 
L 873.233588 -915.96872 
L 880.048855 -920.633784 
L 886.864122 -908.322983 
L 893.679389 -887.8877 
L 900.494656 -897.751228 
L 907.309924 -894.504973 
L 914.125191 -890.12211 
L 920.940458 -901.821748 
L 927.755725 -868.050318 
L 934.570992 -871.811798 
L 941.38626 -872.010937 
L 948.201527 -842.858211 
L 955.016794 -831.638374 
L 961.832061 -822.519983 
L 968.647328 -835.844236 
L 975.462595 -817.483272 
L 982.277863 -807.243527 
L 989.09313 -791.856732 
L 995.908397 -787.326582 
L 1002.723664 -772.648177 
L 1009.538931 -814.172346 
L 1016.354198 -836.895227 
L 1023.169466 -838.18711 
L 1029.984733 -813.172171 
L 1036.8 -785.184029 
L 1036.8 -845.194013 
L 1036.8 -845.194013 
L 1029.984733 -873.182155 
L 1023.169466 -898.197094 
L 1016.354198 -896.905211 
L 1009.538931 -874.18233 
L 1002.723664 -832.658161 
L 995.908397 -847.336566 
L 989.09313 -851.866716 
L 982.277863 -867.253511 
L 975.462595 -877.493256 
L 968.647328 -895.85422 
L 961.832061 -882.529967 
L 955.016794 -891.648358 
L 948.201527 -902.868196 
L 941.38626 -932.020921 
L 934.570992 -931.821783 
L 927.755725 -928.060302 
L 920.940458 -961.831732 
L 914.125191 -950.132094 
L 907.309924 -954.514957 
L 900.494656 -957.761212 
L 893.679389 -947.897684 
L 886.864122 -968.332967 
L 880.048855 -980.643768 
L 873.233588 -975.978704 
L 866.418321 -961.004196 
L 859.603053 -942.006422 
L 852.787786 -955.383031 
L 845.972519 -946.710561 
L 839.157252 -939.593463 
L 832.341985 -950.002075 
L 825.526718 -939.614122 
L 818.71145 -935.214903 
L 811.896183 -937.223644 
L 805.080916 -923.608573 
L 798.265649 -954.196538 
L 791.450382 -939.063896 
L 784.635115 -968.621433 
L 777.819847 -963.113083 
L 771.00458 -955.158583 
L 764.189313 -948.390394 
L 757.374046 -923.919699 
L 750.558779 -911.578168 
L 743.743511 -920.450642 
L 736.928244 -900.189385 
L 730.112977 -875.28515 
L 723.29771 -854.73566 
L 716.482443 -829.199204 
L 709.667176 -815.383276 
L 702.851908 -799.133846 
L 696.036641 -800.823359 
L 689.221374 -785.598188 
L 682.406107 -766.300763 
L 675.59084 -771.480673 
L 668.775573 -757.493421 
L 661.960305 -744.40524 
L 655.145038 -747.312981 
L 648.329771 -751.202133 
L 641.514504 -747.664079 
L 634.699237 -750.410799 
L 627.883969 -744.294555 
L 621.068702 -745.384569 
L 614.253435 -741.992507 
L 607.438168 -746.37479 
L 600.622901 -750.915909 
L 593.807634 -750.657548 
L 586.992366 -751.920352 
L 580.177099 -747.641371 
L 573.361832 -730.66122 
L 566.546565 -726.587715 
L 559.731298 -724.822177 
L 552.916031 -723.553774 
L 546.100763 -729.628026 
L 539.285496 -733.016815 
L 532.470229 -729.203533 
L 525.654962 -725.705688 
L 518.839695 -725.477988 
L 512.024427 -727.920045 
L 505.20916 -733.383628 
L 498.393893 -734.374216 
L 491.578626 -735.567166 
L 484.763359 -736.034702 
L 477.948092 -737.547612 
L 471.132824 -730.527514 
L 464.317557 -732.238223 
L 457.50229 -739.677956 
L 450.687023 -743.496865 
L 443.871756 -737.779565 
L 437.056489 -736.789212 
L 430.241221 -736.84691 
L 423.425954 -739.991337 
L 416.610687 -743.003888 
L 409.79542 -749.712564 
L 402.980153 -750.467866 
L 396.164885 -749.3876 
L 389.349618 -753.552088 
L 382.534351 -739.322275 
L 375.719084 -742.227191 
L 368.903817 -737.69936 
L 362.08855 -735.4027 
L 355.273282 -740.067472 
L 348.458015 -746.453694 
L 341.642748 -746.178432 
L 334.827481 -742.939337 
L 328.012214 -741.169404 
L 321.196947 -740.888964 
L 314.381679 -731.479001 
L 307.566412 -732.063884 
L 300.751145 -731.963361 
L 293.935878 -728.682982 
L 287.120611 -714.198659 
L 280.305344 -702.256358 
L 273.490076 -703.304991 
L 266.674809 -696.425861 
L 259.859542 -696.688462 
L 253.044275 -697.384445 
L 246.229008 -698.258187 
L 239.41374 -696.856435 
L 232.598473 -694.733606 
L 225.783206 -691.382479 
L 218.967939 -687.666595 
L 212.152672 -689.753195 
L 205.337405 -692.232804 
L 198.522137 -691.701926 
L 191.70687 -691.749462 
L 184.891603 -688.967687 
L 178.076336 -688.930911 
L 171.261069 -690.731297 
L 164.445802 -691.501499 
L 157.630534 -692.215221 
L 150.815267 -694.071 
L 144 -696.69744 
z
" id="me65142999b" style="stroke:#ff4c00;stroke-opacity:0.2;"/>
    </defs>
    <g clip-path="url(#pd45933d02d)">
     <use style="fill:#ff4c00;fill-opacity:0.2;stroke:#ff4c00;stroke-opacity:0.2;" x="0" xlink:href="#me65142999b" y="1152"/>
    </g>
   </g>
   <g id="matplotlib.axis_1">
    <g id="xtick_1">
     <g id="line2d_1">
      <defs>
       <path d="M 0 0 
L 0 3.5 
" id="me25971a4c5" style="stroke:#000000;stroke-width:0.8;"/>
      </defs>
      <g>
       <use style="stroke:#000000;stroke-width:0.8;" x="144" xlink:href="#me25971a4c5" y="541.44"/>
      </g>
     </g>
     <g id="text_1">
      <!-- Apr -->
      <defs>
       <path d="M 34.1875 63.1875 
L 20.796875 26.90625 
L 47.609375 26.90625 
z
M 28.609375 72.90625 
L 39.796875 72.90625 
L 67.578125 0 
L 57.328125 0 
L 50.6875 18.703125 
L 17.828125 18.703125 
L 11.1875 0 
L 0.78125 0 
z
" id="DejaVuSans-65"/>
       <path d="M 18.109375 8.203125 
L 18.109375 -20.796875 
L 9.078125 -20.796875 
L 9.078125 54.6875 
L 18.109375 54.6875 
L 18.109375 46.390625 
Q 20.953125 51.265625 25.265625 53.625 
Q 29.59375 56 35.59375 56 
Q 45.5625 56 51.78125 48.09375 
Q 58.015625 40.1875 58.015625 27.296875 
Q 58.015625 14.40625 51.78125 6.484375 
Q 45.5625 -1.421875 35.59375 -1.421875 
Q 29.59375 -1.421875 25.265625 0.953125 
Q 20.953125 3.328125 18.109375 8.203125 
z
M 48.6875 27.296875 
Q 48.6875 37.203125 44.609375 42.84375 
Q 40.53125 48.484375 33.40625 48.484375 
Q 26.265625 48.484375 22.1875 42.84375 
Q 18.109375 37.203125 18.109375 27.296875 
Q 18.109375 17.390625 22.1875 11.75 
Q 26.265625 6.109375 33.40625 6.109375 
Q 40.53125 6.109375 44.609375 11.75 
Q 48.6875 17.390625 48.6875 27.296875 
z
" id="DejaVuSans-112"/>
       <path d="M 41.109375 46.296875 
Q 39.59375 47.171875 37.8125 47.578125 
Q 36.03125 48 33.890625 48 
Q 26.265625 48 22.1875 43.046875 
Q 18.109375 38.09375 18.109375 28.8125 
L 18.109375 0 
L 9.078125 0 
L 9.078125 54.6875 
L 18.109375 54.6875 
L 18.109375 46.1875 
Q 20.953125 51.171875 25.484375 53.578125 
Q 30.03125 56 36.53125 56 
Q 37.453125 56 38.578125 55.875 
Q 39.703125 55.765625 41.0625 55.515625 
z
" id="DejaVuSans-114"/>
      </defs>
      <g transform="translate(135.35 556.038437)scale(0.1 -0.1)">
       <use xlink:href="#DejaVuSans-65"/>
       <use x="68.408203" xlink:href="#DejaVuSans-112"/>
       <use x="131.884766" xlink:href="#DejaVuSans-114"/>
      </g>
      <!-- 2020 -->
      <defs>
       <path d="M 19.1875 8.296875 
L 53.609375 8.296875 
L 53.609375 0 
L 7.328125 0 
L 7.328125 8.296875 
Q 12.9375 14.109375 22.625 23.890625 
Q 32.328125 33.6875 34.8125 36.53125 
Q 39.546875 41.84375 41.421875 45.53125 
Q 43.3125 49.21875 43.3125 52.78125 
Q 43.3125 58.59375 39.234375 62.25 
Q 35.15625 65.921875 28.609375 65.921875 
Q 23.96875 65.921875 18.8125 64.3125 
Q 13.671875 62.703125 7.8125 59.421875 
L 7.8125 69.390625 
Q 13.765625 71.78125 18.9375 73 
Q 24.125 74.21875 28.421875 74.21875 
Q 39.75 74.21875 46.484375 68.546875 
Q 53.21875 62.890625 53.21875 53.421875 
Q 53.21875 48.921875 51.53125 44.890625 
Q 49.859375 40.875 45.40625 35.40625 
Q 44.1875 33.984375 37.640625 27.21875 
Q 31.109375 20.453125 19.1875 8.296875 
z
" id="DejaVuSans-50"/>
       <path d="M 31.78125 66.40625 
Q 24.171875 66.40625 20.328125 58.90625 
Q 16.5 51.421875 16.5 36.375 
Q 16.5 21.390625 20.328125 13.890625 
Q 24.171875 6.390625 31.78125 6.390625 
Q 39.453125 6.390625 43.28125 13.890625 
Q 47.125 21.390625 47.125 36.375 
Q 47.125 51.421875 43.28125 58.90625 
Q 39.453125 66.40625 31.78125 66.40625 
z
M 31.78125 74.21875 
Q 44.046875 74.21875 50.515625 64.515625 
Q 56.984375 54.828125 56.984375 36.375 
Q 56.984375 17.96875 50.515625 8.265625 
Q 44.046875 -1.421875 31.78125 -1.421875 
Q 19.53125 -1.421875 13.0625 8.265625 
Q 6.59375 17.96875 6.59375 36.375 
Q 6.59375 54.828125 13.0625 64.515625 
Q 19.53125 74.21875 31.78125 74.21875 
z
" id="DejaVuSans-48"/>
      </defs>
      <g transform="translate(131.275 567.23625)scale(0.1 -0.1)">
       <use xlink:href="#DejaVuSans-50"/>
       <use x="63.623047" xlink:href="#DejaVuSans-48"/>
       <use x="127.246094" xlink:href="#DejaVuSans-50"/>
       <use x="190.869141" xlink:href="#DejaVuSans-48"/>
      </g>
     </g>
    </g>
    <g id="xtick_2">
     <g id="line2d_2">
      <g>
       <use style="stroke:#000000;stroke-width:0.8;" x="348.458015" xlink:href="#me25971a4c5" y="541.44"/>
      </g>
     </g>
     <g id="text_2">
      <!-- May -->
      <defs>
       <path d="M 9.8125 72.90625 
L 24.515625 72.90625 
L 43.109375 23.296875 
L 61.8125 72.90625 
L 76.515625 72.90625 
L 76.515625 0 
L 66.890625 0 
L 66.890625 64.015625 
L 48.09375 14.015625 
L 38.1875 14.015625 
L 19.390625 64.015625 
L 19.390625 0 
L 9.8125 0 
z
" id="DejaVuSans-77"/>
       <path d="M 34.28125 27.484375 
Q 23.390625 27.484375 19.1875 25 
Q 14.984375 22.515625 14.984375 16.5 
Q 14.984375 11.71875 18.140625 8.90625 
Q 21.296875 6.109375 26.703125 6.109375 
Q 34.1875 6.109375 38.703125 11.40625 
Q 43.21875 16.703125 43.21875 25.484375 
L 43.21875 27.484375 
z
M 52.203125 31.203125 
L 52.203125 0 
L 43.21875 0 
L 43.21875 8.296875 
Q 40.140625 3.328125 35.546875 0.953125 
Q 30.953125 -1.421875 24.3125 -1.421875 
Q 15.921875 -1.421875 10.953125 3.296875 
Q 6 8.015625 6 15.921875 
Q 6 25.140625 12.171875 29.828125 
Q 18.359375 34.515625 30.609375 34.515625 
L 43.21875 34.515625 
L 43.21875 35.40625 
Q 43.21875 41.609375 39.140625 45 
Q 35.0625 48.390625 27.6875 48.390625 
Q 23 48.390625 18.546875 47.265625 
Q 14.109375 46.140625 10.015625 43.890625 
L 10.015625 52.203125 
Q 14.9375 54.109375 19.578125 55.046875 
Q 24.21875 56 28.609375 56 
Q 40.484375 56 46.34375 49.84375 
Q 52.203125 43.703125 52.203125 31.203125 
z
" id="DejaVuSans-97"/>
       <path d="M 32.171875 -5.078125 
Q 28.375 -14.84375 24.75 -17.8125 
Q 21.140625 -20.796875 15.09375 -20.796875 
L 7.90625 -20.796875 
L 7.90625 -13.28125 
L 13.1875 -13.28125 
Q 16.890625 -13.28125 18.9375 -11.515625 
Q 21 -9.765625 23.484375 -3.21875 
L 25.09375 0.875 
L 2.984375 54.6875 
L 12.5 54.6875 
L 29.59375 11.921875 
L 46.6875 54.6875 
L 56.203125 54.6875 
z
" id="DejaVuSans-121"/>
      </defs>
      <g transform="translate(338.120515 556.038437)scale(0.1 -0.1)">
       <use xlink:href="#DejaVuSans-77"/>
       <use x="86.279297" xlink:href="#DejaVuSans-97"/>
       <use x="147.558594" xlink:href="#DejaVuSans-121"/>
      </g>
     </g>
    </g>
    <g id="xtick_3">
     <g id="line2d_3">
      <g>
       <use style="stroke:#000000;stroke-width:0.8;" x="559.731298" xlink:href="#me25971a4c5" y="541.44"/>
      </g>
     </g>
     <g id="text_3">
      <!-- Jun -->
      <defs>
       <path d="M 9.8125 72.90625 
L 19.671875 72.90625 
L 19.671875 5.078125 
Q 19.671875 -8.109375 14.671875 -14.0625 
Q 9.671875 -20.015625 -1.421875 -20.015625 
L -5.171875 -20.015625 
L -5.171875 -11.71875 
L -2.09375 -11.71875 
Q 4.4375 -11.71875 7.125 -8.046875 
Q 9.8125 -4.390625 9.8125 5.078125 
z
" id="DejaVuSans-74"/>
       <path d="M 8.5 21.578125 
L 8.5 54.6875 
L 17.484375 54.6875 
L 17.484375 21.921875 
Q 17.484375 14.15625 20.5 10.265625 
Q 23.53125 6.390625 29.59375 6.390625 
Q 36.859375 6.390625 41.078125 11.03125 
Q 45.3125 15.671875 45.3125 23.6875 
L 45.3125 54.6875 
L 54.296875 54.6875 
L 54.296875 0 
L 45.3125 0 
L 45.3125 8.40625 
Q 42.046875 3.421875 37.71875 1 
Q 33.40625 -1.421875 27.6875 -1.421875 
Q 18.265625 -1.421875 13.375 4.4375 
Q 8.5 10.296875 8.5 21.578125 
z
M 31.109375 56 
z
" id="DejaVuSans-117"/>
       <path d="M 54.890625 33.015625 
L 54.890625 0 
L 45.90625 0 
L 45.90625 32.71875 
Q 45.90625 40.484375 42.875 44.328125 
Q 39.84375 48.1875 33.796875 48.1875 
Q 26.515625 48.1875 22.3125 43.546875 
Q 18.109375 38.921875 18.109375 30.90625 
L 18.109375 0 
L 9.078125 0 
L 9.078125 54.6875 
L 18.109375 54.6875 
L 18.109375 46.1875 
Q 21.34375 51.125 25.703125 53.5625 
Q 30.078125 56 35.796875 56 
Q 45.21875 56 50.046875 50.171875 
Q 54.890625 44.34375 54.890625 33.015625 
z
" id="DejaVuSans-110"/>
      </defs>
      <g transform="translate(551.918798 556.038437)scale(0.1 -0.1)">
       <use xlink:href="#DejaVuSans-74"/>
       <use x="29.492188" xlink:href="#DejaVuSans-117"/>
       <use x="92.871094" xlink:href="#DejaVuSans-110"/>
      </g>
     </g>
    </g>
    <g id="xtick_4">
     <g id="line2d_4">
      <g>
       <use style="stroke:#000000;stroke-width:0.8;" x="764.189313" xlink:href="#me25971a4c5" y="541.44"/>
      </g>
     </g>
     <g id="text_4">
      <!-- Jul -->
      <defs>
       <path d="M 9.421875 75.984375 
L 18.40625 75.984375 
L 18.40625 0 
L 9.421875 0 
z
" id="DejaVuSans-108"/>
      </defs>
      <g transform="translate(758.1565 556.038437)scale(0.1 -0.1)">
       <use xlink:href="#DejaVuSans-74"/>
       <use x="29.492188" xlink:href="#DejaVuSans-117"/>
       <use x="92.871094" xlink:href="#DejaVuSans-108"/>
      </g>
     </g>
    </g>
    <g id="xtick_5">
     <g id="line2d_5">
      <g>
       <use style="stroke:#000000;stroke-width:0.8;" x="975.462595" xlink:href="#me25971a4c5" y="541.44"/>
      </g>
     </g>
     <g id="text_5">
      <!-- Aug -->
      <defs>
       <path d="M 45.40625 27.984375 
Q 45.40625 37.75 41.375 43.109375 
Q 37.359375 48.484375 30.078125 48.484375 
Q 22.859375 48.484375 18.828125 43.109375 
Q 14.796875 37.75 14.796875 27.984375 
Q 14.796875 18.265625 18.828125 12.890625 
Q 22.859375 7.515625 30.078125 7.515625 
Q 37.359375 7.515625 41.375 12.890625 
Q 45.40625 18.265625 45.40625 27.984375 
z
M 54.390625 6.78125 
Q 54.390625 -7.171875 48.1875 -13.984375 
Q 42 -20.796875 29.203125 -20.796875 
Q 24.46875 -20.796875 20.265625 -20.09375 
Q 16.0625 -19.390625 12.109375 -17.921875 
L 12.109375 -9.1875 
Q 16.0625 -11.328125 19.921875 -12.34375 
Q 23.78125 -13.375 27.78125 -13.375 
Q 36.625 -13.375 41.015625 -8.765625 
Q 45.40625 -4.15625 45.40625 5.171875 
L 45.40625 9.625 
Q 42.625 4.78125 38.28125 2.390625 
Q 33.9375 0 27.875 0 
Q 17.828125 0 11.671875 7.65625 
Q 5.515625 15.328125 5.515625 27.984375 
Q 5.515625 40.671875 11.671875 48.328125 
Q 17.828125 56 27.875 56 
Q 33.9375 56 38.28125 53.609375 
Q 42.625 51.21875 45.40625 46.390625 
L 45.40625 54.6875 
L 54.390625 54.6875 
z
" id="DejaVuSans-103"/>
      </defs>
      <g transform="translate(965.699314 556.038437)scale(0.1 -0.1)">
       <use xlink:href="#DejaVuSans-65"/>
       <use x="68.408203" xlink:href="#DejaVuSans-117"/>
       <use x="131.787109" xlink:href="#DejaVuSans-103"/>
      </g>
     </g>
    </g>
    <g id="xtick_6">
     <g id="line2d_6">
      <g>
       <use style="stroke:#000000;stroke-width:0.8;" x="1036.8" xlink:href="#me25971a4c5" y="541.44"/>
      </g>
     </g>
    </g>
    <g id="xtick_7">
     <g id="line2d_7">
      <defs>
       <path d="M 0 0 
L 0 2 
" id="m87bef1bdfb" style="stroke:#000000;stroke-width:0.6;"/>
      </defs>
      <g>
       <use style="stroke:#000000;stroke-width:0.6;" x="178.076336" xlink:href="#m87bef1bdfb" y="541.44"/>
      </g>
     </g>
    </g>
    <g id="xtick_8">
     <g id="line2d_8">
      <g>
       <use style="stroke:#000000;stroke-width:0.6;" x="225.783206" xlink:href="#m87bef1bdfb" y="541.44"/>
      </g>
     </g>
    </g>
    <g id="xtick_9">
     <g id="line2d_9">
      <g>
       <use style="stroke:#000000;stroke-width:0.6;" x="273.490076" xlink:href="#m87bef1bdfb" y="541.44"/>
      </g>
     </g>
    </g>
    <g id="xtick_10">
     <g id="line2d_10">
      <g>
       <use style="stroke:#000000;stroke-width:0.6;" x="321.196947" xlink:href="#m87bef1bdfb" y="541.44"/>
      </g>
     </g>
    </g>
    <g id="xtick_11">
     <g id="line2d_11">
      <g>
       <use style="stroke:#000000;stroke-width:0.6;" x="368.903817" xlink:href="#m87bef1bdfb" y="541.44"/>
      </g>
     </g>
    </g>
    <g id="xtick_12">
     <g id="line2d_12">
      <g>
       <use style="stroke:#000000;stroke-width:0.6;" x="416.610687" xlink:href="#m87bef1bdfb" y="541.44"/>
      </g>
     </g>
    </g>
    <g id="xtick_13">
     <g id="line2d_13">
      <g>
       <use style="stroke:#000000;stroke-width:0.6;" x="464.317557" xlink:href="#m87bef1bdfb" y="541.44"/>
      </g>
     </g>
    </g>
    <g id="xtick_14">
     <g id="line2d_14">
      <g>
       <use style="stroke:#000000;stroke-width:0.6;" x="512.024427" xlink:href="#m87bef1bdfb" y="541.44"/>
      </g>
     </g>
    </g>
    <g id="xtick_15">
     <g id="line2d_15">
      <g>
       <use style="stroke:#000000;stroke-width:0.6;" x="607.438168" xlink:href="#m87bef1bdfb" y="541.44"/>
      </g>
     </g>
    </g>
    <g id="xtick_16">
     <g id="line2d_16">
      <g>
       <use style="stroke:#000000;stroke-width:0.6;" x="655.145038" xlink:href="#m87bef1bdfb" y="541.44"/>
      </g>
     </g>
    </g>
    <g id="xtick_17">
     <g id="line2d_17">
      <g>
       <use style="stroke:#000000;stroke-width:0.6;" x="702.851908" xlink:href="#m87bef1bdfb" y="541.44"/>
      </g>
     </g>
    </g>
    <g id="xtick_18">
     <g id="line2d_18">
      <g>
       <use style="stroke:#000000;stroke-width:0.6;" x="750.558779" xlink:href="#m87bef1bdfb" y="541.44"/>
      </g>
     </g>
    </g>
    <g id="xtick_19">
     <g id="line2d_19">
      <g>
       <use style="stroke:#000000;stroke-width:0.6;" x="798.265649" xlink:href="#m87bef1bdfb" y="541.44"/>
      </g>
     </g>
    </g>
    <g id="xtick_20">
     <g id="line2d_20">
      <g>
       <use style="stroke:#000000;stroke-width:0.6;" x="845.972519" xlink:href="#m87bef1bdfb" y="541.44"/>
      </g>
     </g>
    </g>
    <g id="xtick_21">
     <g id="line2d_21">
      <g>
       <use style="stroke:#000000;stroke-width:0.6;" x="893.679389" xlink:href="#m87bef1bdfb" y="541.44"/>
      </g>
     </g>
    </g>
    <g id="xtick_22">
     <g id="line2d_22">
      <g>
       <use style="stroke:#000000;stroke-width:0.6;" x="941.38626" xlink:href="#m87bef1bdfb" y="541.44"/>
      </g>
     </g>
    </g>
    <g id="xtick_23">
     <g id="line2d_23">
      <g>
       <use style="stroke:#000000;stroke-width:0.6;" x="989.09313" xlink:href="#m87bef1bdfb" y="541.44"/>
      </g>
     </g>
    </g>
    <g id="text_6">
     <!-- Date -->
     <defs>
      <path d="M 19.671875 64.796875 
L 19.671875 8.109375 
L 31.59375 8.109375 
Q 46.6875 8.109375 53.6875 14.9375 
Q 60.6875 21.78125 60.6875 36.53125 
Q 60.6875 51.171875 53.6875 57.984375 
Q 46.6875 64.796875 31.59375 64.796875 
z
M 9.8125 72.90625 
L 30.078125 72.90625 
Q 51.265625 72.90625 61.171875 64.09375 
Q 71.09375 55.28125 71.09375 36.53125 
Q 71.09375 17.671875 61.125 8.828125 
Q 51.171875 0 30.078125 0 
L 9.8125 0 
z
" id="DejaVuSans-68"/>
      <path d="M 18.3125 70.21875 
L 18.3125 54.6875 
L 36.8125 54.6875 
L 36.8125 47.703125 
L 18.3125 47.703125 
L 18.3125 18.015625 
Q 18.3125 11.328125 20.140625 9.421875 
Q 21.96875 7.515625 27.59375 7.515625 
L 36.8125 7.515625 
L 36.8125 0 
L 27.59375 0 
Q 17.1875 0 13.234375 3.875 
Q 9.28125 7.765625 9.28125 18.015625 
L 9.28125 47.703125 
L 2.6875 47.703125 
L 2.6875 54.6875 
L 9.28125 54.6875 
L 9.28125 70.21875 
z
" id="DejaVuSans-116"/>
      <path d="M 56.203125 29.59375 
L 56.203125 25.203125 
L 14.890625 25.203125 
Q 15.484375 15.921875 20.484375 11.0625 
Q 25.484375 6.203125 34.421875 6.203125 
Q 39.59375 6.203125 44.453125 7.46875 
Q 49.3125 8.734375 54.109375 11.28125 
L 54.109375 2.78125 
Q 49.265625 0.734375 44.1875 -0.34375 
Q 39.109375 -1.421875 33.890625 -1.421875 
Q 20.796875 -1.421875 13.15625 6.1875 
Q 5.515625 13.8125 5.515625 26.8125 
Q 5.515625 40.234375 12.765625 48.109375 
Q 20.015625 56 32.328125 56 
Q 43.359375 56 49.78125 48.890625 
Q 56.203125 41.796875 56.203125 29.59375 
z
M 47.21875 32.234375 
Q 47.125 39.59375 43.09375 43.984375 
Q 39.0625 48.390625 32.421875 48.390625 
Q 24.90625 48.390625 20.390625 44.140625 
Q 15.875 39.890625 15.1875 32.171875 
z
" id="DejaVuSans-101"/>
     </defs>
     <g transform="translate(578.449219 580.914375)scale(0.1 -0.1)">
      <use xlink:href="#DejaVuSans-68"/>
      <use x="77.001953" xlink:href="#DejaVuSans-97"/>
      <use x="138.28125" xlink:href="#DejaVuSans-116"/>
      <use x="177.490234" xlink:href="#DejaVuSans-101"/>
     </g>
    </g>
   </g>
   <g id="matplotlib.axis_2">
    <g id="ytick_1">
     <g id="line2d_24">
      <defs>
       <path d="M 0 0 
L -3.5 0 
" id="mbd6902827d" style="stroke:#000000;stroke-width:0.8;"/>
      </defs>
      <g>
       <use style="stroke:#000000;stroke-width:0.8;" x="144" xlink:href="#mbd6902827d" y="515.865664"/>
      </g>
     </g>
     <g id="text_7">
      <!-- 0 -->
      <g transform="translate(130.6375 519.664882)scale(0.1 -0.1)">
       <use xlink:href="#DejaVuSans-48"/>
      </g>
     </g>
    </g>
    <g id="ytick_2">
     <g id="line2d_25">
      <g>
       <use style="stroke:#000000;stroke-width:0.8;" x="144" xlink:href="#mbd6902827d" y="460.758548"/>
      </g>
     </g>
     <g id="text_8">
      <!-- 100 -->
      <defs>
       <path d="M 12.40625 8.296875 
L 28.515625 8.296875 
L 28.515625 63.921875 
L 10.984375 60.40625 
L 10.984375 69.390625 
L 28.421875 72.90625 
L 38.28125 72.90625 
L 38.28125 8.296875 
L 54.390625 8.296875 
L 54.390625 0 
L 12.40625 0 
z
" id="DejaVuSans-49"/>
      </defs>
      <g transform="translate(117.9125 464.557767)scale(0.1 -0.1)">
       <use xlink:href="#DejaVuSans-49"/>
       <use x="63.623047" xlink:href="#DejaVuSans-48"/>
       <use x="127.246094" xlink:href="#DejaVuSans-48"/>
      </g>
     </g>
    </g>
    <g id="ytick_3">
     <g id="line2d_26">
      <g>
       <use style="stroke:#000000;stroke-width:0.8;" x="144" xlink:href="#mbd6902827d" y="405.651433"/>
      </g>
     </g>
     <g id="text_9">
      <!-- 200 -->
      <g transform="translate(117.9125 409.450652)scale(0.1 -0.1)">
       <use xlink:href="#DejaVuSans-50"/>
       <use x="63.623047" xlink:href="#DejaVuSans-48"/>
       <use x="127.246094" xlink:href="#DejaVuSans-48"/>
      </g>
     </g>
    </g>
    <g id="ytick_4">
     <g id="line2d_27">
      <g>
       <use style="stroke:#000000;stroke-width:0.8;" x="144" xlink:href="#mbd6902827d" y="350.544318"/>
      </g>
     </g>
     <g id="text_10">
      <!-- 300 -->
      <defs>
       <path d="M 40.578125 39.3125 
Q 47.65625 37.796875 51.625 33 
Q 55.609375 28.21875 55.609375 21.1875 
Q 55.609375 10.40625 48.1875 4.484375 
Q 40.765625 -1.421875 27.09375 -1.421875 
Q 22.515625 -1.421875 17.65625 -0.515625 
Q 12.796875 0.390625 7.625 2.203125 
L 7.625 11.71875 
Q 11.71875 9.328125 16.59375 8.109375 
Q 21.484375 6.890625 26.8125 6.890625 
Q 36.078125 6.890625 40.9375 10.546875 
Q 45.796875 14.203125 45.796875 21.1875 
Q 45.796875 27.640625 41.28125 31.265625 
Q 36.765625 34.90625 28.71875 34.90625 
L 20.21875 34.90625 
L 20.21875 43.015625 
L 29.109375 43.015625 
Q 36.375 43.015625 40.234375 45.921875 
Q 44.09375 48.828125 44.09375 54.296875 
Q 44.09375 59.90625 40.109375 62.90625 
Q 36.140625 65.921875 28.71875 65.921875 
Q 24.65625 65.921875 20.015625 65.03125 
Q 15.375 64.15625 9.8125 62.3125 
L 9.8125 71.09375 
Q 15.4375 72.65625 20.34375 73.4375 
Q 25.25 74.21875 29.59375 74.21875 
Q 40.828125 74.21875 47.359375 69.109375 
Q 53.90625 64.015625 53.90625 55.328125 
Q 53.90625 49.265625 50.4375 45.09375 
Q 46.96875 40.921875 40.578125 39.3125 
z
" id="DejaVuSans-51"/>
      </defs>
      <g transform="translate(117.9125 354.343537)scale(0.1 -0.1)">
       <use xlink:href="#DejaVuSans-51"/>
       <use x="63.623047" xlink:href="#DejaVuSans-48"/>
       <use x="127.246094" xlink:href="#DejaVuSans-48"/>
      </g>
     </g>
    </g>
    <g id="ytick_5">
     <g id="line2d_28">
      <g>
       <use style="stroke:#000000;stroke-width:0.8;" x="144" xlink:href="#mbd6902827d" y="295.437203"/>
      </g>
     </g>
     <g id="text_11">
      <!-- 400 -->
      <defs>
       <path d="M 37.796875 64.3125 
L 12.890625 25.390625 
L 37.796875 25.390625 
z
M 35.203125 72.90625 
L 47.609375 72.90625 
L 47.609375 25.390625 
L 58.015625 25.390625 
L 58.015625 17.1875 
L 47.609375 17.1875 
L 47.609375 0 
L 37.796875 0 
L 37.796875 17.1875 
L 4.890625 17.1875 
L 4.890625 26.703125 
z
" id="DejaVuSans-52"/>
      </defs>
      <g transform="translate(117.9125 299.236422)scale(0.1 -0.1)">
       <use xlink:href="#DejaVuSans-52"/>
       <use x="63.623047" xlink:href="#DejaVuSans-48"/>
       <use x="127.246094" xlink:href="#DejaVuSans-48"/>
      </g>
     </g>
    </g>
    <g id="ytick_6">
     <g id="line2d_29">
      <g>
       <use style="stroke:#000000;stroke-width:0.8;" x="144" xlink:href="#mbd6902827d" y="240.330088"/>
      </g>
     </g>
     <g id="text_12">
      <!-- 500 -->
      <defs>
       <path d="M 10.796875 72.90625 
L 49.515625 72.90625 
L 49.515625 64.59375 
L 19.828125 64.59375 
L 19.828125 46.734375 
Q 21.96875 47.46875 24.109375 47.828125 
Q 26.265625 48.1875 28.421875 48.1875 
Q 40.625 48.1875 47.75 41.5 
Q 54.890625 34.8125 54.890625 23.390625 
Q 54.890625 11.625 47.5625 5.09375 
Q 40.234375 -1.421875 26.90625 -1.421875 
Q 22.3125 -1.421875 17.546875 -0.640625 
Q 12.796875 0.140625 7.71875 1.703125 
L 7.71875 11.625 
Q 12.109375 9.234375 16.796875 8.0625 
Q 21.484375 6.890625 26.703125 6.890625 
Q 35.15625 6.890625 40.078125 11.328125 
Q 45.015625 15.765625 45.015625 23.390625 
Q 45.015625 31 40.078125 35.4375 
Q 35.15625 39.890625 26.703125 39.890625 
Q 22.75 39.890625 18.8125 39.015625 
Q 14.890625 38.140625 10.796875 36.28125 
z
" id="DejaVuSans-53"/>
      </defs>
      <g transform="translate(117.9125 244.129307)scale(0.1 -0.1)">
       <use xlink:href="#DejaVuSans-53"/>
       <use x="63.623047" xlink:href="#DejaVuSans-48"/>
       <use x="127.246094" xlink:href="#DejaVuSans-48"/>
      </g>
     </g>
    </g>
    <g id="ytick_7">
     <g id="line2d_30">
      <g>
       <use style="stroke:#000000;stroke-width:0.8;" x="144" xlink:href="#mbd6902827d" y="185.222973"/>
      </g>
     </g>
     <g id="text_13">
      <!-- 600 -->
      <defs>
       <path d="M 33.015625 40.375 
Q 26.375 40.375 22.484375 35.828125 
Q 18.609375 31.296875 18.609375 23.390625 
Q 18.609375 15.53125 22.484375 10.953125 
Q 26.375 6.390625 33.015625 6.390625 
Q 39.65625 6.390625 43.53125 10.953125 
Q 47.40625 15.53125 47.40625 23.390625 
Q 47.40625 31.296875 43.53125 35.828125 
Q 39.65625 40.375 33.015625 40.375 
z
M 52.59375 71.296875 
L 52.59375 62.3125 
Q 48.875 64.0625 45.09375 64.984375 
Q 41.3125 65.921875 37.59375 65.921875 
Q 27.828125 65.921875 22.671875 59.328125 
Q 17.53125 52.734375 16.796875 39.40625 
Q 19.671875 43.65625 24.015625 45.921875 
Q 28.375 48.1875 33.59375 48.1875 
Q 44.578125 48.1875 50.953125 41.515625 
Q 57.328125 34.859375 57.328125 23.390625 
Q 57.328125 12.15625 50.6875 5.359375 
Q 44.046875 -1.421875 33.015625 -1.421875 
Q 20.359375 -1.421875 13.671875 8.265625 
Q 6.984375 17.96875 6.984375 36.375 
Q 6.984375 53.65625 15.1875 63.9375 
Q 23.390625 74.21875 37.203125 74.21875 
Q 40.921875 74.21875 44.703125 73.484375 
Q 48.484375 72.75 52.59375 71.296875 
z
" id="DejaVuSans-54"/>
      </defs>
      <g transform="translate(117.9125 189.022191)scale(0.1 -0.1)">
       <use xlink:href="#DejaVuSans-54"/>
       <use x="63.623047" xlink:href="#DejaVuSans-48"/>
       <use x="127.246094" xlink:href="#DejaVuSans-48"/>
      </g>
     </g>
    </g>
    <g id="text_14">
     <!-- x -->
     <defs>
      <path d="M 54.890625 54.6875 
L 35.109375 28.078125 
L 55.90625 0 
L 45.3125 0 
L 29.390625 21.484375 
L 13.484375 0 
L 2.875 0 
L 24.125 28.609375 
L 4.6875 54.6875 
L 15.28125 54.6875 
L 29.78125 35.203125 
L 44.28125 54.6875 
z
" id="DejaVuSans-120"/>
     </defs>
     <g transform="translate(111.832812 342.799375)rotate(-90)scale(0.1 -0.1)">
      <use xlink:href="#DejaVuSans-120"/>
     </g>
    </g>
   </g>
   <g id="line2d_31">
    <defs>
     <path d="M 0 2.5 
C 0.663008 2.5 1.29895 2.236584 1.767767 1.767767 
C 2.236584 1.29895 2.5 0.663008 2.5 0 
C 2.5 -0.663008 2.236584 -1.29895 1.767767 -1.767767 
C 1.29895 -2.236584 0.663008 -2.5 0 -2.5 
C -0.663008 -2.5 -1.29895 -2.236584 -1.767767 -1.767767 
C -2.236584 -1.29895 -2.5 -0.663008 -2.5 0 
C -2.5 0.663008 -2.236584 1.29895 -1.767767 1.767767 
C -1.29895 2.236584 -0.663008 2.5 0 2.5 
z
" id="m065fb2a146" style="stroke:#1f77b4;"/>
    </defs>
    <g clip-path="url(#pd45933d02d)">
     <use style="fill:#1f77b4;stroke:#1f77b4;" x="144" xlink:href="#m065fb2a146" y="451.390339"/>
     <use style="fill:#1f77b4;stroke:#1f77b4;" x="150.815267" xlink:href="#m065fb2a146" y="435.409275"/>
     <use style="fill:#1f77b4;stroke:#1f77b4;" x="157.630534" xlink:href="#m065fb2a146" y="462.411762"/>
     <use style="fill:#1f77b4;stroke:#1f77b4;" x="164.445802" xlink:href="#m065fb2a146" y="451.390339"/>
     <use style="fill:#1f77b4;stroke:#1f77b4;" x="171.261069" xlink:href="#m065fb2a146" y="472.882114"/>
     <use style="fill:#1f77b4;stroke:#1f77b4;" x="178.076336" xlink:href="#m065fb2a146" y="488.312106"/>
     <use style="fill:#1f77b4;stroke:#1f77b4;" x="184.891603" xlink:href="#m065fb2a146" y="473.984256"/>
     <use style="fill:#1f77b4;stroke:#1f77b4;" x="191.70687" xlink:href="#m065fb2a146" y="461.860691"/>
     <use style="fill:#1f77b4;stroke:#1f77b4;" x="198.522137" xlink:href="#m065fb2a146" y="480.046039"/>
     <use style="fill:#1f77b4;stroke:#1f77b4;" x="205.337405" xlink:href="#m065fb2a146" y="478.392825"/>
     <use style="fill:#1f77b4;stroke:#1f77b4;" x="212.152672" xlink:href="#m065fb2a146" y="492.169604"/>
     <use style="fill:#1f77b4;stroke:#1f77b4;" x="218.967939" xlink:href="#m065fb2a146" y="492.169604"/>
     <use style="fill:#1f77b4;stroke:#1f77b4;" x="225.783206" xlink:href="#m065fb2a146" y="470.126758"/>
     <use style="fill:#1f77b4;stroke:#1f77b4;" x="232.598473" xlink:href="#m065fb2a146" y="470.677829"/>
     <use style="fill:#1f77b4;stroke:#1f77b4;" x="239.41374" xlink:href="#m065fb2a146" y="474.535327"/>
     <use style="fill:#1f77b4;stroke:#1f77b4;" x="246.229008" xlink:href="#m065fb2a146" y="476.739612"/>
     <use style="fill:#1f77b4;stroke:#1f77b4;" x="253.044275" xlink:href="#m065fb2a146" y="485.55675"/>
     <use style="fill:#1f77b4;stroke:#1f77b4;" x="259.859542" xlink:href="#m065fb2a146" y="485.55675"/>
     <use style="fill:#1f77b4;stroke:#1f77b4;" x="266.674809" xlink:href="#m065fb2a146" y="484.454608"/>
     <use style="fill:#1f77b4;stroke:#1f77b4;" x="273.490076" xlink:href="#m065fb2a146" y="455.798908"/>
     <use style="fill:#1f77b4;stroke:#1f77b4;" x="280.305344" xlink:href="#m065fb2a146" y="484.454608"/>
     <use style="fill:#1f77b4;stroke:#1f77b4;" x="287.120611" xlink:href="#m065fb2a146" y="432.102849"/>
     <use style="fill:#1f77b4;stroke:#1f77b4;" x="293.935878" xlink:href="#m065fb2a146" y="415.019643"/>
     <use style="fill:#1f77b4;stroke:#1f77b4;" x="300.751145" xlink:href="#m065fb2a146" y="451.390339"/>
     <use style="fill:#1f77b4;stroke:#1f77b4;" x="307.566412" xlink:href="#m065fb2a146" y="460.758548"/>
     <use style="fill:#1f77b4;stroke:#1f77b4;" x="314.381679" xlink:href="#m065fb2a146" y="461.860691"/>
     <use style="fill:#1f77b4;stroke:#1f77b4;" x="321.196947" xlink:href="#m065fb2a146" y="420.530354"/>
     <use style="fill:#1f77b4;stroke:#1f77b4;" x="328.012214" xlink:href="#m065fb2a146" y="450.839268"/>
     <use style="fill:#1f77b4;stroke:#1f77b4;" x="334.827481" xlink:href="#m065fb2a146" y="443.124272"/>
     <use style="fill:#1f77b4;stroke:#1f77b4;" x="341.642748" xlink:href="#m065fb2a146" y="434.858204"/>
     <use style="fill:#1f77b4;stroke:#1f77b4;" x="348.458015" xlink:href="#m065fb2a146" y="443.675343"/>
     <use style="fill:#1f77b4;stroke:#1f77b4;" x="355.273282" xlink:href="#m065fb2a146" y="469.024616"/>
     <use style="fill:#1f77b4;stroke:#1f77b4;" x="362.08855" xlink:href="#m065fb2a146" y="464.616046"/>
     <use style="fill:#1f77b4;stroke:#1f77b4;" x="368.903817" xlink:href="#m065fb2a146" y="438.715702"/>
     <use style="fill:#1f77b4;stroke:#1f77b4;" x="375.719084" xlink:href="#m065fb2a146" y="428.24535"/>
     <use style="fill:#1f77b4;stroke:#1f77b4;" x="382.534351" xlink:href="#m065fb2a146" y="455.247837"/>
     <use style="fill:#1f77b4;stroke:#1f77b4;" x="389.349618" xlink:href="#m065fb2a146" y="387.466085"/>
     <use style="fill:#1f77b4;stroke:#1f77b4;" x="396.164885" xlink:href="#m065fb2a146" y="453.043552"/>
     <use style="fill:#1f77b4;stroke:#1f77b4;" x="402.980153" xlink:href="#m065fb2a146" y="433.204991"/>
     <use style="fill:#1f77b4;stroke:#1f77b4;" x="409.79542" xlink:href="#m065fb2a146" y="439.266773"/>
     <use style="fill:#1f77b4;stroke:#1f77b4;" x="416.610687" xlink:href="#m065fb2a146" y="462.962833"/>
     <use style="fill:#1f77b4;stroke:#1f77b4;" x="423.425954" xlink:href="#m065fb2a146" y="451.390339"/>
     <use style="fill:#1f77b4;stroke:#1f77b4;" x="430.241221" xlink:href="#m065fb2a146" y="453.594623"/>
     <use style="fill:#1f77b4;stroke:#1f77b4;" x="437.056489" xlink:href="#m065fb2a146" y="443.124272"/>
     <use style="fill:#1f77b4;stroke:#1f77b4;" x="443.871756" xlink:href="#m065fb2a146" y="439.266773"/>
     <use style="fill:#1f77b4;stroke:#1f77b4;" x="450.687023" xlink:href="#m065fb2a146" y="419.979283"/>
     <use style="fill:#1f77b4;stroke:#1f77b4;" x="457.50229" xlink:href="#m065fb2a146" y="455.247837"/>
     <use style="fill:#1f77b4;stroke:#1f77b4;" x="464.317557" xlink:href="#m065fb2a146" y="471.779971"/>
     <use style="fill:#1f77b4;stroke:#1f77b4;" x="471.132824" xlink:href="#m065fb2a146" y="453.043552"/>
     <use style="fill:#1f77b4;stroke:#1f77b4;" x="477.948092" xlink:href="#m065fb2a146" y="419.428212"/>
     <use style="fill:#1f77b4;stroke:#1f77b4;" x="484.763359" xlink:href="#m065fb2a146" y="450.288197"/>
     <use style="fill:#1f77b4;stroke:#1f77b4;" x="491.578626" xlink:href="#m065fb2a146" y="446.98177"/>
     <use style="fill:#1f77b4;stroke:#1f77b4;" x="498.393893" xlink:href="#m065fb2a146" y="450.288197"/>
     <use style="fill:#1f77b4;stroke:#1f77b4;" x="505.20916" xlink:href="#m065fb2a146" y="450.288197"/>
     <use style="fill:#1f77b4;stroke:#1f77b4;" x="512.024427" xlink:href="#m065fb2a146" y="469.024616"/>
     <use style="fill:#1f77b4;stroke:#1f77b4;" x="518.839695" xlink:href="#m065fb2a146" y="460.207477"/>
     <use style="fill:#1f77b4;stroke:#1f77b4;" x="525.654962" xlink:href="#m065fb2a146" y="451.390339"/>
     <use style="fill:#1f77b4;stroke:#1f77b4;" x="532.470229" xlink:href="#m065fb2a146" y="438.715702"/>
     <use style="fill:#1f77b4;stroke:#1f77b4;" x="539.285496" xlink:href="#m065fb2a146" y="435.960347"/>
     <use style="fill:#1f77b4;stroke:#1f77b4;" x="546.100763" xlink:href="#m065fb2a146" y="462.962833"/>
     <use style="fill:#1f77b4;stroke:#1f77b4;" x="552.916031" xlink:href="#m065fb2a146" y="475.637469"/>
     <use style="fill:#1f77b4;stroke:#1f77b4;" x="559.731298" xlink:href="#m065fb2a146" y="449.737125"/>
     <use style="fill:#1f77b4;stroke:#1f77b4;" x="566.546565" xlink:href="#m065fb2a146" y="447.532841"/>
     <use style="fill:#1f77b4;stroke:#1f77b4;" x="573.361832" xlink:href="#m065fb2a146" y="437.61356"/>
     <use style="fill:#1f77b4;stroke:#1f77b4;" x="580.177099" xlink:href="#m065fb2a146" y="383.608587"/>
     <use style="fill:#1f77b4;stroke:#1f77b4;" x="586.992366" xlink:href="#m065fb2a146" y="424.938924"/>
     <use style="fill:#1f77b4;stroke:#1f77b4;" x="593.807634" xlink:href="#m065fb2a146" y="443.675343"/>
     <use style="fill:#1f77b4;stroke:#1f77b4;" x="600.622901" xlink:href="#m065fb2a146" y="437.062489"/>
     <use style="fill:#1f77b4;stroke:#1f77b4;" x="607.438168" xlink:href="#m065fb2a146" y="455.247837"/>
     <use style="fill:#1f77b4;stroke:#1f77b4;" x="614.253435" xlink:href="#m065fb2a146" y="456.349979"/>
     <use style="fill:#1f77b4;stroke:#1f77b4;" x="621.068702" xlink:href="#m065fb2a146" y="427.143208"/>
     <use style="fill:#1f77b4;stroke:#1f77b4;" x="627.883969" xlink:href="#m065fb2a146" y="443.124272"/>
     <use style="fill:#1f77b4;stroke:#1f77b4;" x="634.699237" xlink:href="#m065fb2a146" y="414.468572"/>
     <use style="fill:#1f77b4;stroke:#1f77b4;" x="641.514504" xlink:href="#m065fb2a146" y="446.430698"/>
     <use style="fill:#1f77b4;stroke:#1f77b4;" x="648.329771" xlink:href="#m065fb2a146" y="422.183568"/>
     <use style="fill:#1f77b4;stroke:#1f77b4;" x="655.145038" xlink:href="#m065fb2a146" y="449.737125"/>
     <use style="fill:#1f77b4;stroke:#1f77b4;" x="661.960305" xlink:href="#m065fb2a146" y="447.532841"/>
     <use style="fill:#1f77b4;stroke:#1f77b4;" x="668.775573" xlink:href="#m065fb2a146" y="384.710729"/>
     <use style="fill:#1f77b4;stroke:#1f77b4;" x="675.59084" xlink:href="#m065fb2a146" y="373.689306"/>
     <use style="fill:#1f77b4;stroke:#1f77b4;" x="682.406107" xlink:href="#m065fb2a146" y="442.022129"/>
     <use style="fill:#1f77b4;stroke:#1f77b4;" x="689.221374" xlink:href="#m065fb2a146" y="345.033607"/>
     <use style="fill:#1f77b4;stroke:#1f77b4;" x="696.036641" xlink:href="#m065fb2a146" y="349.442176"/>
     <use style="fill:#1f77b4;stroke:#1f77b4;" x="702.851908" xlink:href="#m065fb2a146" y="406.753576"/>
     <use style="fill:#1f77b4;stroke:#1f77b4;" x="709.667176" xlink:href="#m065fb2a146" y="332.910041"/>
     <use style="fill:#1f77b4;stroke:#1f77b4;" x="716.482443" xlink:href="#m065fb2a146" y="331.256828"/>
     <use style="fill:#1f77b4;stroke:#1f77b4;" x="723.29771" xlink:href="#m065fb2a146" y="273.394357"/>
     <use style="fill:#1f77b4;stroke:#1f77b4;" x="730.112977" xlink:href="#m065fb2a146" y="275.598641"/>
     <use style="fill:#1f77b4;stroke:#1f77b4;" x="736.928244" xlink:href="#m065fb2a146" y="241.983301"/>
     <use style="fill:#1f77b4;stroke:#1f77b4;" x="743.743511" xlink:href="#m065fb2a146" y="241.43223"/>
     <use style="fill:#1f77b4;stroke:#1f77b4;" x="750.558779" xlink:href="#m065fb2a146" y="341.176108"/>
     <use style="fill:#1f77b4;stroke:#1f77b4;" x="757.374046" xlink:href="#m065fb2a146" y="254.657938"/>
     <use style="fill:#1f77b4;stroke:#1f77b4;" x="764.189313" xlink:href="#m065fb2a146" y="194.040111"/>
     <use style="fill:#1f77b4;stroke:#1f77b4;" x="771.00458" xlink:href="#m065fb2a146" y="246.39187"/>
     <use style="fill:#1f77b4;stroke:#1f77b4;" x="777.819847" xlink:href="#m065fb2a146" y="232.06402"/>
     <use style="fill:#1f77b4;stroke:#1f77b4;" x="784.635115" xlink:href="#m065fb2a146" y="232.06402"/>
     <use style="fill:#1f77b4;stroke:#1f77b4;" x="791.450382" xlink:href="#m065fb2a146" y="364.872168"/>
     <use style="fill:#1f77b4;stroke:#1f77b4;" x="798.265649" xlink:href="#m065fb2a146" y="197.346538"/>
     <use style="fill:#1f77b4;stroke:#1f77b4;" x="805.080916" xlink:href="#m065fb2a146" y="370.38288"/>
     <use style="fill:#1f77b4;stroke:#1f77b4;" x="811.896183" xlink:href="#m065fb2a146" y="207.265819"/>
     <use style="fill:#1f77b4;stroke:#1f77b4;" x="818.71145" xlink:href="#m065fb2a146" y="261.821863"/>
     <use style="fill:#1f77b4;stroke:#1f77b4;" x="825.526718" xlink:href="#m065fb2a146" y="235.921519"/>
     <use style="fill:#1f77b4;stroke:#1f77b4;" x="832.341985" xlink:href="#m065fb2a146" y="208.367961"/>
     <use style="fill:#1f77b4;stroke:#1f77b4;" x="839.157252" xlink:href="#m065fb2a146" y="284.966851"/>
     <use style="fill:#1f77b4;stroke:#1f77b4;" x="845.972519" xlink:href="#m065fb2a146" y="218.838313"/>
     <use style="fill:#1f77b4;stroke:#1f77b4;" x="852.787786" xlink:href="#m065fb2a146" y="207.81689"/>
     <use style="fill:#1f77b4;stroke:#1f77b4;" x="859.603053" xlink:href="#m065fb2a146" y="290.477563"/>
     <use style="fill:#1f77b4;stroke:#1f77b4;" x="866.418321" xlink:href="#m065fb2a146" y="166.486553"/>
     <use style="fill:#1f77b4;stroke:#1f77b4;" x="873.233588" xlink:href="#m065fb2a146" y="171.446194"/>
     <use style="fill:#1f77b4;stroke:#1f77b4;" x="880.048855" xlink:href="#m065fb2a146" y="202.857249"/>
     <use style="fill:#1f77b4;stroke:#1f77b4;" x="886.864122" xlink:href="#m065fb2a146" y="266.230432"/>
     <use style="fill:#1f77b4;stroke:#1f77b4;" x="893.679389" xlink:href="#m065fb2a146" y="303.70327"/>
     <use style="fill:#1f77b4;stroke:#1f77b4;" x="900.494656" xlink:href="#m065fb2a146" y="192.386898"/>
     <use style="fill:#1f77b4;stroke:#1f77b4;" x="907.309924" xlink:href="#m065fb2a146" y="239.779017"/>
     <use style="fill:#1f77b4;stroke:#1f77b4;" x="914.125191" xlink:href="#m065fb2a146" y="245.840799"/>
     <use style="fill:#1f77b4;stroke:#1f77b4;" x="920.940458" xlink:href="#m065fb2a146" y="183.569759"/>
     <use style="fill:#1f77b4;stroke:#1f77b4;" x="927.755725" xlink:href="#m065fb2a146" y="359.912528"/>
     <use style="fill:#1f77b4;stroke:#1f77b4;" x="934.570992" xlink:href="#m065fb2a146" y="227.655451"/>
     <use style="fill:#1f77b4;stroke:#1f77b4;" x="941.38626" xlink:href="#m065fb2a146" y="241.43223"/>
     <use style="fill:#1f77b4;stroke:#1f77b4;" x="948.201527" xlink:href="#m065fb2a146" y="360.463599"/>
     <use style="fill:#1f77b4;stroke:#1f77b4;" x="955.016794" xlink:href="#m065fb2a146" y="305.907555"/>
     <use style="fill:#1f77b4;stroke:#1f77b4;" x="961.832061" xlink:href="#m065fb2a146" y="306.458626"/>
     <use style="fill:#1f77b4;stroke:#1f77b4;" x="968.647328" xlink:href="#m065fb2a146" y="224.349024"/>
     <use style="fill:#1f77b4;stroke:#1f77b4;" x="975.462595" xlink:href="#m065fb2a146" y="347.237891"/>
     <use style="fill:#1f77b4;stroke:#1f77b4;" x="982.277863" xlink:href="#m065fb2a146" y="326.848259"/>
     <use style="fill:#1f77b4;stroke:#1f77b4;" x="989.09313" xlink:href="#m065fb2a146" y="356.05503"/>
     <use style="fill:#1f77b4;stroke:#1f77b4;" x="995.908397" xlink:href="#m065fb2a146" y="324.092903"/>
     <use style="fill:#1f77b4;stroke:#1f77b4;" x="1002.723664" xlink:href="#m065fb2a146" y="370.933951"/>
     <use style="fill:#1f77b4;stroke:#1f77b4;" x="1009.538931" xlink:href="#m065fb2a146" y="156.567273"/>
     <use style="fill:#1f77b4;stroke:#1f77b4;" x="1016.354198" xlink:href="#m065fb2a146" y="212.225459"/>
     <use style="fill:#1f77b4;stroke:#1f77b4;" x="1023.169466" xlink:href="#m065fb2a146" y="286.068993"/>
     <use style="fill:#1f77b4;stroke:#1f77b4;" x="1029.984733" xlink:href="#m065fb2a146" y="390.221441"/>
     <use style="fill:#1f77b4;stroke:#1f77b4;" x="1036.8" xlink:href="#m065fb2a146" y="415.570714"/>
    </g>
   </g>
   <g id="line2d_32">
    <path clip-path="url(#pd45933d02d)" d="M 144 456.760129 
L 157.630534 467.205701 
L 164.445802 471.711487 
L 171.261069 476.432595 
L 178.076336 482.015131 
L 184.891603 485.287745 
L 191.70687 485.147837 
L 198.522137 487.125536 
L 205.337405 487.892322 
L 212.152672 491.177198 
L 218.967939 493.723066 
L 225.783206 490.243744 
L 232.598473 486.998111 
L 239.41374 484.912038 
L 246.229008 483.517467 
L 253.044275 484.391196 
L 259.859542 485.091008 
L 266.674809 485.365156 
L 273.490076 478.505086 
L 280.305344 479.578134 
L 287.120611 467.662864 
L 293.935878 453.205663 
L 300.751145 449.950568 
L 307.566412 449.872262 
L 314.381679 450.475705 
L 321.196947 441.08056 
L 328.012214 440.81146 
L 334.827481 439.04985 
L 341.642748 435.816612 
L 348.458015 435.545288 
L 355.273282 441.934027 
L 362.08855 446.600315 
L 368.903817 444.304504 
L 375.719084 439.777101 
L 382.534351 442.682203 
L 389.349618 428.452452 
L 396.164885 432.61695 
L 402.980153 431.536684 
L 409.79542 432.291996 
L 416.610687 439.000696 
L 423.425954 442.013285 
L 430.241221 445.157761 
L 437.056489 445.215511 
L 443.871756 444.22521 
L 450.687023 438.507958 
L 457.50229 442.326909 
L 464.317557 449.766676 
L 471.132824 451.477413 
L 477.948092 444.457336 
L 484.763359 445.970261 
L 491.578626 446.437808 
L 498.393893 447.630765 
L 505.20916 448.621357 
L 512.024427 454.084944 
L 518.839695 456.527002 
L 525.654962 456.299302 
L 532.470229 452.801458 
L 539.285496 448.988176 
L 546.100763 452.376965 
L 552.916031 458.451217 
L 559.731298 457.182814 
L 566.546565 455.417277 
L 573.361832 451.343771 
L 580.177099 434.36362 
L 586.992366 430.084639 
L 593.807634 431.347444 
L 600.622901 431.089083 
L 607.438168 435.630201 
L 614.253435 440.012485 
L 621.068702 436.620423 
L 627.883969 437.710436 
L 634.699237 431.594193 
L 641.514504 434.340913 
L 648.329771 430.802859 
L 655.145038 434.692011 
L 661.960305 437.599752 
L 668.775573 424.511571 
L 675.59084 410.524319 
L 682.406107 415.704229 
L 689.221374 396.406804 
L 696.036641 381.181633 
L 702.851908 382.871146 
L 709.667176 366.621716 
L 716.482443 352.805788 
L 723.29771 327.269332 
L 730.112977 306.719842 
L 736.928244 281.815607 
L 743.743511 261.55435 
L 750.558779 270.426824 
L 757.374046 258.085293 
L 764.189313 233.614598 
L 771.00458 226.846409 
L 777.819847 218.891909 
L 784.635115 213.383559 
L 791.450382 242.941096 
L 798.265649 227.808454 
L 805.080916 258.396419 
L 811.896183 244.781348 
L 818.71145 246.790089 
L 825.526718 242.390871 
L 832.341985 232.002917 
L 839.157252 242.411529 
L 845.972519 235.294431 
L 852.787786 226.621961 
L 859.603053 239.99857 
L 866.418321 221.000796 
L 873.233588 206.026288 
L 880.048855 201.361224 
L 886.864122 213.672025 
L 893.679389 234.107308 
L 900.494656 224.24378 
L 907.309924 227.490035 
L 914.125191 231.872898 
L 920.940458 220.17326 
L 927.755725 253.94469 
L 934.570992 250.18321 
L 941.38626 249.984071 
L 948.201527 279.136796 
L 955.016794 290.356634 
L 961.832061 299.475025 
L 968.647328 286.150772 
L 975.462595 304.511736 
L 982.277863 314.751481 
L 989.09313 330.138276 
L 995.908397 334.668426 
L 1002.723664 349.346831 
L 1009.538931 307.822662 
L 1016.354198 285.099781 
L 1023.169466 283.807898 
L 1029.984733 308.822837 
L 1036.8 336.810979 
L 1036.8 336.810979 
" style="fill:none;stroke:#ff7f0e;stroke-linecap:square;stroke-width:6;"/>
   </g>
   <g id="patch_3">
    <path d="M 144 541.44 
L 144 138.24 
" style="fill:none;stroke:#000000;stroke-linecap:square;stroke-linejoin:miter;stroke-width:0.8;"/>
   </g>
   <g id="patch_4">
    <path d="M 1036.8 541.44 
L 1036.8 138.24 
" style="fill:none;stroke:#000000;stroke-linecap:square;stroke-linejoin:miter;stroke-width:0.8;"/>
   </g>
   <g id="patch_5">
    <path d="M 144 541.44 
L 1036.8 541.44 
" style="fill:none;stroke:#000000;stroke-linecap:square;stroke-linejoin:miter;stroke-width:0.8;"/>
   </g>
   <g id="patch_6">
    <path d="M 144 138.24 
L 1036.8 138.24 
" style="fill:none;stroke:#000000;stroke-linecap:square;stroke-linejoin:miter;stroke-width:0.8;"/>
   </g>
   <g id="text_15">
    <!-- Kalman Filter Estimate of $ x $ -->
    <defs>
     <path d="M 9.8125 72.90625 
L 19.671875 72.90625 
L 19.671875 42.09375 
L 52.390625 72.90625 
L 65.09375 72.90625 
L 28.90625 38.921875 
L 67.671875 0 
L 54.6875 0 
L 19.671875 35.109375 
L 19.671875 0 
L 9.8125 0 
z
" id="DejaVuSans-75"/>
     <path d="M 52 44.1875 
Q 55.375 50.25 60.0625 53.125 
Q 64.75 56 71.09375 56 
Q 79.640625 56 84.28125 50.015625 
Q 88.921875 44.046875 88.921875 33.015625 
L 88.921875 0 
L 79.890625 0 
L 79.890625 32.71875 
Q 79.890625 40.578125 77.09375 44.375 
Q 74.3125 48.1875 68.609375 48.1875 
Q 61.625 48.1875 57.5625 43.546875 
Q 53.515625 38.921875 53.515625 30.90625 
L 53.515625 0 
L 44.484375 0 
L 44.484375 32.71875 
Q 44.484375 40.625 41.703125 44.40625 
Q 38.921875 48.1875 33.109375 48.1875 
Q 26.21875 48.1875 22.15625 43.53125 
Q 18.109375 38.875 18.109375 30.90625 
L 18.109375 0 
L 9.078125 0 
L 9.078125 54.6875 
L 18.109375 54.6875 
L 18.109375 46.1875 
Q 21.1875 51.21875 25.484375 53.609375 
Q 29.78125 56 35.6875 56 
Q 41.65625 56 45.828125 52.96875 
Q 50 49.953125 52 44.1875 
z
" id="DejaVuSans-109"/>
     <path id="DejaVuSans-32"/>
     <path d="M 9.8125 72.90625 
L 51.703125 72.90625 
L 51.703125 64.59375 
L 19.671875 64.59375 
L 19.671875 43.109375 
L 48.578125 43.109375 
L 48.578125 34.8125 
L 19.671875 34.8125 
L 19.671875 0 
L 9.8125 0 
z
" id="DejaVuSans-70"/>
     <path d="M 9.421875 54.6875 
L 18.40625 54.6875 
L 18.40625 0 
L 9.421875 0 
z
M 9.421875 75.984375 
L 18.40625 75.984375 
L 18.40625 64.59375 
L 9.421875 64.59375 
z
" id="DejaVuSans-105"/>
     <path d="M 9.8125 72.90625 
L 55.90625 72.90625 
L 55.90625 64.59375 
L 19.671875 64.59375 
L 19.671875 43.015625 
L 54.390625 43.015625 
L 54.390625 34.71875 
L 19.671875 34.71875 
L 19.671875 8.296875 
L 56.78125 8.296875 
L 56.78125 0 
L 9.8125 0 
z
" id="DejaVuSans-69"/>
     <path d="M 44.28125 53.078125 
L 44.28125 44.578125 
Q 40.484375 46.53125 36.375 47.5 
Q 32.28125 48.484375 27.875 48.484375 
Q 21.1875 48.484375 17.84375 46.4375 
Q 14.5 44.390625 14.5 40.28125 
Q 14.5 37.15625 16.890625 35.375 
Q 19.28125 33.59375 26.515625 31.984375 
L 29.59375 31.296875 
Q 39.15625 29.25 43.1875 25.515625 
Q 47.21875 21.78125 47.21875 15.09375 
Q 47.21875 7.46875 41.1875 3.015625 
Q 35.15625 -1.421875 24.609375 -1.421875 
Q 20.21875 -1.421875 15.453125 -0.5625 
Q 10.6875 0.296875 5.421875 2 
L 5.421875 11.28125 
Q 10.40625 8.6875 15.234375 7.390625 
Q 20.0625 6.109375 24.8125 6.109375 
Q 31.15625 6.109375 34.5625 8.28125 
Q 37.984375 10.453125 37.984375 14.40625 
Q 37.984375 18.0625 35.515625 20.015625 
Q 33.0625 21.96875 24.703125 23.78125 
L 21.578125 24.515625 
Q 13.234375 26.265625 9.515625 29.90625 
Q 5.8125 33.546875 5.8125 39.890625 
Q 5.8125 47.609375 11.28125 51.796875 
Q 16.75 56 26.8125 56 
Q 31.78125 56 36.171875 55.265625 
Q 40.578125 54.546875 44.28125 53.078125 
z
" id="DejaVuSans-115"/>
     <path d="M 30.609375 48.390625 
Q 23.390625 48.390625 19.1875 42.75 
Q 14.984375 37.109375 14.984375 27.296875 
Q 14.984375 17.484375 19.15625 11.84375 
Q 23.34375 6.203125 30.609375 6.203125 
Q 37.796875 6.203125 41.984375 11.859375 
Q 46.1875 17.53125 46.1875 27.296875 
Q 46.1875 37.015625 41.984375 42.703125 
Q 37.796875 48.390625 30.609375 48.390625 
z
M 30.609375 56 
Q 42.328125 56 49.015625 48.375 
Q 55.71875 40.765625 55.71875 27.296875 
Q 55.71875 13.875 49.015625 6.21875 
Q 42.328125 -1.421875 30.609375 -1.421875 
Q 18.84375 -1.421875 12.171875 6.21875 
Q 5.515625 13.875 5.515625 27.296875 
Q 5.515625 40.765625 12.171875 48.375 
Q 18.84375 56 30.609375 56 
z
" id="DejaVuSans-111"/>
     <path d="M 37.109375 75.984375 
L 37.109375 68.5 
L 28.515625 68.5 
Q 23.6875 68.5 21.796875 66.546875 
Q 19.921875 64.59375 19.921875 59.515625 
L 19.921875 54.6875 
L 34.71875 54.6875 
L 34.71875 47.703125 
L 19.921875 47.703125 
L 19.921875 0 
L 10.890625 0 
L 10.890625 47.703125 
L 2.296875 47.703125 
L 2.296875 54.6875 
L 10.890625 54.6875 
L 10.890625 58.5 
Q 10.890625 67.625 15.140625 71.796875 
Q 19.390625 75.984375 28.609375 75.984375 
z
" id="DejaVuSans-102"/>
     <path d="M 60.015625 54.6875 
L 34.90625 27.875 
L 50.296875 0 
L 39.984375 0 
L 28.421875 21.6875 
L 8.296875 0 
L -2.59375 0 
L 24.3125 28.8125 
L 10.015625 54.6875 
L 20.3125 54.6875 
L 30.8125 34.90625 
L 49.125 54.6875 
z
" id="DejaVuSans-Oblique-120"/>
    </defs>
    <g transform="translate(508.98 132.24)scale(0.12 -0.12)">
     <use transform="translate(0 0.015625)" xlink:href="#DejaVuSans-75"/>
     <use transform="translate(65.576172 0.015625)" xlink:href="#DejaVuSans-97"/>
     <use transform="translate(126.855469 0.015625)" xlink:href="#DejaVuSans-108"/>
     <use transform="translate(154.638672 0.015625)" xlink:href="#DejaVuSans-109"/>
     <use transform="translate(252.050781 0.015625)" xlink:href="#DejaVuSans-97"/>
     <use transform="translate(313.330078 0.015625)" xlink:href="#DejaVuSans-110"/>
     <use transform="translate(376.708984 0.015625)" xlink:href="#DejaVuSans-32"/>
     <use transform="translate(408.496094 0.015625)" xlink:href="#DejaVuSans-70"/>
     <use transform="translate(466.015625 0.015625)" xlink:href="#DejaVuSans-105"/>
     <use transform="translate(493.798828 0.015625)" xlink:href="#DejaVuSans-108"/>
     <use transform="translate(521.582031 0.015625)" xlink:href="#DejaVuSans-116"/>
     <use transform="translate(560.791016 0.015625)" xlink:href="#DejaVuSans-101"/>
     <use transform="translate(622.314453 0.015625)" xlink:href="#DejaVuSans-114"/>
     <use transform="translate(663.427734 0.015625)" xlink:href="#DejaVuSans-32"/>
     <use transform="translate(695.214844 0.015625)" xlink:href="#DejaVuSans-69"/>
     <use transform="translate(758.398438 0.015625)" xlink:href="#DejaVuSans-115"/>
     <use transform="translate(810.498047 0.015625)" xlink:href="#DejaVuSans-116"/>
     <use transform="translate(849.707031 0.015625)" xlink:href="#DejaVuSans-105"/>
     <use transform="translate(877.490234 0.015625)" xlink:href="#DejaVuSans-109"/>
     <use transform="translate(974.902344 0.015625)" xlink:href="#DejaVuSans-97"/>
     <use transform="translate(1036.181641 0.015625)" xlink:href="#DejaVuSans-116"/>
     <use transform="translate(1075.390625 0.015625)" xlink:href="#DejaVuSans-101"/>
     <use transform="translate(1136.914062 0.015625)" xlink:href="#DejaVuSans-32"/>
     <use transform="translate(1168.701172 0.015625)" xlink:href="#DejaVuSans-111"/>
     <use transform="translate(1229.882812 0.015625)" xlink:href="#DejaVuSans-102"/>
     <use transform="translate(1265.087891 0.015625)" xlink:href="#DejaVuSans-32"/>
     <use transform="translate(1296.875 0.015625)" xlink:href="#DejaVuSans-Oblique-120"/>
    </g>
   </g>
   <g id="legend_1">
    <g id="patch_7">
     <path d="M 151 190.274375 
L 410.4 190.274375 
Q 412.4 190.274375 412.4 188.274375 
L 412.4 145.24 
Q 412.4 143.24 410.4 143.24 
L 151 143.24 
Q 149 143.24 149 145.24 
L 149 188.274375 
Q 149 190.274375 151 190.274375 
z
" style="fill:#ffffff;opacity:0.8;stroke:#cccccc;stroke-linejoin:miter;"/>
    </g>
    <g id="line2d_33"/>
    <g id="line2d_34">
     <g>
      <use style="fill:#1f77b4;stroke:#1f77b4;" x="163" xlink:href="#m065fb2a146" y="151.338437"/>
     </g>
    </g>
    <g id="text_16">
     <!-- Measured Data -->
     <defs>
      <path d="M 45.40625 46.390625 
L 45.40625 75.984375 
L 54.390625 75.984375 
L 54.390625 0 
L 45.40625 0 
L 45.40625 8.203125 
Q 42.578125 3.328125 38.25 0.953125 
Q 33.9375 -1.421875 27.875 -1.421875 
Q 17.96875 -1.421875 11.734375 6.484375 
Q 5.515625 14.40625 5.515625 27.296875 
Q 5.515625 40.1875 11.734375 48.09375 
Q 17.96875 56 27.875 56 
Q 33.9375 56 38.25 53.625 
Q 42.578125 51.265625 45.40625 46.390625 
z
M 14.796875 27.296875 
Q 14.796875 17.390625 18.875 11.75 
Q 22.953125 6.109375 30.078125 6.109375 
Q 37.203125 6.109375 41.296875 11.75 
Q 45.40625 17.390625 45.40625 27.296875 
Q 45.40625 37.203125 41.296875 42.84375 
Q 37.203125 48.484375 30.078125 48.484375 
Q 22.953125 48.484375 18.875 42.84375 
Q 14.796875 37.203125 14.796875 27.296875 
z
" id="DejaVuSans-100"/>
     </defs>
     <g transform="translate(181 154.838437)scale(0.1 -0.1)">
      <use xlink:href="#DejaVuSans-77"/>
      <use x="86.279297" xlink:href="#DejaVuSans-101"/>
      <use x="147.802734" xlink:href="#DejaVuSans-97"/>
      <use x="209.082031" xlink:href="#DejaVuSans-115"/>
      <use x="261.181641" xlink:href="#DejaVuSans-117"/>
      <use x="324.560547" xlink:href="#DejaVuSans-114"/>
      <use x="363.423828" xlink:href="#DejaVuSans-101"/>
      <use x="424.947266" xlink:href="#DejaVuSans-100"/>
      <use x="488.423828" xlink:href="#DejaVuSans-32"/>
      <use x="520.210938" xlink:href="#DejaVuSans-68"/>
      <use x="597.212891" xlink:href="#DejaVuSans-97"/>
      <use x="658.492188" xlink:href="#DejaVuSans-116"/>
      <use x="697.701172" xlink:href="#DejaVuSans-97"/>
     </g>
    </g>
    <g id="line2d_35">
     <path d="M 153 166.016562 
L 173 166.016562 
" style="fill:none;stroke:#ff7f0e;stroke-linecap:square;stroke-width:6;"/>
    </g>
    <g id="line2d_36"/>
    <g id="text_17">
     <!-- Kalman Filter Estimate of $ x $ -->
     <g transform="translate(181 169.516562)scale(0.1 -0.1)">
      <use transform="translate(0 0.015625)" xlink:href="#DejaVuSans-75"/>
      <use transform="translate(65.576172 0.015625)" xlink:href="#DejaVuSans-97"/>
      <use transform="translate(126.855469 0.015625)" xlink:href="#DejaVuSans-108"/>
      <use transform="translate(154.638672 0.015625)" xlink:href="#DejaVuSans-109"/>
      <use transform="translate(252.050781 0.015625)" xlink:href="#DejaVuSans-97"/>
      <use transform="translate(313.330078 0.015625)" xlink:href="#DejaVuSans-110"/>
      <use transform="translate(376.708984 0.015625)" xlink:href="#DejaVuSans-32"/>
      <use transform="translate(408.496094 0.015625)" xlink:href="#DejaVuSans-70"/>
      <use transform="translate(466.015625 0.015625)" xlink:href="#DejaVuSans-105"/>
      <use transform="translate(493.798828 0.015625)" xlink:href="#DejaVuSans-108"/>
      <use transform="translate(521.582031 0.015625)" xlink:href="#DejaVuSans-116"/>
      <use transform="translate(560.791016 0.015625)" xlink:href="#DejaVuSans-101"/>
      <use transform="translate(622.314453 0.015625)" xlink:href="#DejaVuSans-114"/>
      <use transform="translate(663.427734 0.015625)" xlink:href="#DejaVuSans-32"/>
      <use transform="translate(695.214844 0.015625)" xlink:href="#DejaVuSans-69"/>
      <use transform="translate(758.398438 0.015625)" xlink:href="#DejaVuSans-115"/>
      <use transform="translate(810.498047 0.015625)" xlink:href="#DejaVuSans-116"/>
      <use transform="translate(849.707031 0.015625)" xlink:href="#DejaVuSans-105"/>
      <use transform="translate(877.490234 0.015625)" xlink:href="#DejaVuSans-109"/>
      <use transform="translate(974.902344 0.015625)" xlink:href="#DejaVuSans-97"/>
      <use transform="translate(1036.181641 0.015625)" xlink:href="#DejaVuSans-116"/>
      <use transform="translate(1075.390625 0.015625)" xlink:href="#DejaVuSans-101"/>
      <use transform="translate(1136.914062 0.015625)" xlink:href="#DejaVuSans-32"/>
      <use transform="translate(1168.701172 0.015625)" xlink:href="#DejaVuSans-111"/>
      <use transform="translate(1229.882812 0.015625)" xlink:href="#DejaVuSans-102"/>
      <use transform="translate(1265.087891 0.015625)" xlink:href="#DejaVuSans-32"/>
      <use transform="translate(1296.875 0.015625)" xlink:href="#DejaVuSans-Oblique-120"/>
     </g>
    </g>
    <g id="patch_8">
     <path d="M 153 184.194687 
L 173 184.194687 
L 173 177.194687 
L 153 177.194687 
z
" style="fill:#ff4c00;fill-opacity:0.2;stroke:#ff4c00;stroke-linejoin:miter;stroke-opacity:0.2;"/>
    </g>
    <g id="text_18">
     <!-- +/- 1$ \sigma $ Bounds for Kalman Filter Estimate of $ x $ -->
     <defs>
      <path d="M 46 62.703125 
L 46 35.5 
L 73.1875 35.5 
L 73.1875 27.203125 
L 46 27.203125 
L 46 0 
L 37.796875 0 
L 37.796875 27.203125 
L 10.59375 27.203125 
L 10.59375 35.5 
L 37.796875 35.5 
L 37.796875 62.703125 
z
" id="DejaVuSans-43"/>
      <path d="M 25.390625 72.90625 
L 33.6875 72.90625 
L 8.296875 -9.28125 
L 0 -9.28125 
z
" id="DejaVuSans-47"/>
      <path d="M 4.890625 31.390625 
L 31.203125 31.390625 
L 31.203125 23.390625 
L 4.890625 23.390625 
z
" id="DejaVuSans-45"/>
      <path d="M 34.671875 47.5625 
Q 27.25 47.5625 22.21875 42.1875 
Q 16.890625 36.578125 15.140625 27.296875 
Q 13.1875 17.484375 16.3125 11.8125 
Q 19.390625 6.203125 26.65625 6.203125 
Q 33.84375 6.203125 39.109375 11.859375 
Q 44.4375 17.53125 46.34375 27.296875 
Q 48.046875 36.234375 45.015625 42.1875 
Q 42.1875 47.5625 34.671875 47.5625 
z
M 36.078125 54.734375 
L 65.921875 54.6875 
L 64.15625 45.703125 
L 54.109375 45.703125 
Q 57.90625 38.09375 55.859375 27.296875 
Q 53.21875 13.875 45.0625 6.25 
Q 36.859375 -1.421875 25.140625 -1.421875 
Q 13.375 -1.421875 8.203125 6.25 
Q 3.03125 13.875 5.671875 27.296875 
Q 8.25 40.765625 16.40625 48.390625 
Q 23.1875 54.734375 36.078125 54.734375 
z
" id="DejaVuSans-Oblique-963"/>
      <path d="M 19.671875 34.8125 
L 19.671875 8.109375 
L 35.5 8.109375 
Q 43.453125 8.109375 47.28125 11.40625 
Q 51.125 14.703125 51.125 21.484375 
Q 51.125 28.328125 47.28125 31.5625 
Q 43.453125 34.8125 35.5 34.8125 
z
M 19.671875 64.796875 
L 19.671875 42.828125 
L 34.28125 42.828125 
Q 41.5 42.828125 45.03125 45.53125 
Q 48.578125 48.25 48.578125 53.8125 
Q 48.578125 59.328125 45.03125 62.0625 
Q 41.5 64.796875 34.28125 64.796875 
z
M 9.8125 72.90625 
L 35.015625 72.90625 
Q 46.296875 72.90625 52.390625 68.21875 
Q 58.5 63.53125 58.5 54.890625 
Q 58.5 48.1875 55.375 44.234375 
Q 52.25 40.28125 46.1875 39.3125 
Q 53.46875 37.75 57.5 32.78125 
Q 61.53125 27.828125 61.53125 20.40625 
Q 61.53125 10.640625 54.890625 5.3125 
Q 48.25 0 35.984375 0 
L 9.8125 0 
z
" id="DejaVuSans-66"/>
     </defs>
     <g transform="translate(181 184.194687)scale(0.1 -0.1)">
      <use transform="translate(0 0.015625)" xlink:href="#DejaVuSans-43"/>
      <use transform="translate(83.789062 0.015625)" xlink:href="#DejaVuSans-47"/>
      <use transform="translate(117.480469 0.015625)" xlink:href="#DejaVuSans-45"/>
      <use transform="translate(153.564453 0.015625)" xlink:href="#DejaVuSans-32"/>
      <use transform="translate(185.351562 0.015625)" xlink:href="#DejaVuSans-49"/>
      <use transform="translate(248.974609 0.015625)" xlink:href="#DejaVuSans-Oblique-963"/>
      <use transform="translate(312.353516 0.015625)" xlink:href="#DejaVuSans-32"/>
      <use transform="translate(344.140625 0.015625)" xlink:href="#DejaVuSans-66"/>
      <use transform="translate(412.744141 0.015625)" xlink:href="#DejaVuSans-111"/>
      <use transform="translate(473.925781 0.015625)" xlink:href="#DejaVuSans-117"/>
      <use transform="translate(537.304688 0.015625)" xlink:href="#DejaVuSans-110"/>
      <use transform="translate(600.683594 0.015625)" xlink:href="#DejaVuSans-100"/>
      <use transform="translate(664.160156 0.015625)" xlink:href="#DejaVuSans-115"/>
      <use transform="translate(716.259766 0.015625)" xlink:href="#DejaVuSans-32"/>
      <use transform="translate(748.046875 0.015625)" xlink:href="#DejaVuSans-102"/>
      <use transform="translate(783.251953 0.015625)" xlink:href="#DejaVuSans-111"/>
      <use transform="translate(844.433594 0.015625)" xlink:href="#DejaVuSans-114"/>
      <use transform="translate(885.546875 0.015625)" xlink:href="#DejaVuSans-32"/>
      <use transform="translate(917.333984 0.015625)" xlink:href="#DejaVuSans-75"/>
      <use transform="translate(982.910156 0.015625)" xlink:href="#DejaVuSans-97"/>
      <use transform="translate(1044.189453 0.015625)" xlink:href="#DejaVuSans-108"/>
      <use transform="translate(1071.972656 0.015625)" xlink:href="#DejaVuSans-109"/>
      <use transform="translate(1169.384766 0.015625)" xlink:href="#DejaVuSans-97"/>
      <use transform="translate(1230.664062 0.015625)" xlink:href="#DejaVuSans-110"/>
      <use transform="translate(1294.042969 0.015625)" xlink:href="#DejaVuSans-32"/>
      <use transform="translate(1325.830078 0.015625)" xlink:href="#DejaVuSans-70"/>
      <use transform="translate(1383.349609 0.015625)" xlink:href="#DejaVuSans-105"/>
      <use transform="translate(1411.132812 0.015625)" xlink:href="#DejaVuSans-108"/>
      <use transform="translate(1438.916016 0.015625)" xlink:href="#DejaVuSans-116"/>
      <use transform="translate(1478.125 0.015625)" xlink:href="#DejaVuSans-101"/>
      <use transform="translate(1539.648438 0.015625)" xlink:href="#DejaVuSans-114"/>
      <use transform="translate(1580.761719 0.015625)" xlink:href="#DejaVuSans-32"/>
      <use transform="translate(1612.548828 0.015625)" xlink:href="#DejaVuSans-69"/>
      <use transform="translate(1675.732422 0.015625)" xlink:href="#DejaVuSans-115"/>
      <use transform="translate(1727.832031 0.015625)" xlink:href="#DejaVuSans-116"/>
      <use transform="translate(1767.041016 0.015625)" xlink:href="#DejaVuSans-105"/>
      <use transform="translate(1794.824219 0.015625)" xlink:href="#DejaVuSans-109"/>
      <use transform="translate(1892.236328 0.015625)" xlink:href="#DejaVuSans-97"/>
      <use transform="translate(1953.515625 0.015625)" xlink:href="#DejaVuSans-116"/>
      <use transform="translate(1992.724609 0.015625)" xlink:href="#DejaVuSans-101"/>
      <use transform="translate(2054.248047 0.015625)" xlink:href="#DejaVuSans-32"/>
      <use transform="translate(2086.035156 0.015625)" xlink:href="#DejaVuSans-111"/>
      <use transform="translate(2147.216797 0.015625)" xlink:href="#DejaVuSans-102"/>
      <use transform="translate(2182.421875 0.015625)" xlink:href="#DejaVuSans-32"/>
      <use transform="translate(2214.208984 0.015625)" xlink:href="#DejaVuSans-Oblique-120"/>
     </g>
    </g>
   </g>
  </g>
  <g id="axes_2">
   <g id="patch_9">
    <path d="M 144 1025.28 
L 1036.8 1025.28 
L 1036.8 622.08 
L 144 622.08 
z
" style="fill:#ffffff;"/>
   </g>
   <g id="PolyCollection_2">
    <defs>
     <path d="M 144 -268.287718 
L 144 -216.405101 
L 150.815267 -207.12266 
L 157.630534 -199.783522 
L 164.445802 -196.502864 
L 171.261069 -192.555507 
L 178.076336 -187.431695 
L 184.891603 -189.401127 
L 191.70687 -197.977598 
L 198.522137 -200.778999 
L 205.337405 -205.190905 
L 212.152672 -204.714529 
L 218.967939 -205.404163 
L 225.783206 -214.826609 
L 232.598473 -222.279975 
L 239.41374 -226.830196 
L 246.229008 -229.651918 
L 253.044275 -228.760499 
L 259.859542 -228.220571 
L 266.674809 -228.367003 
L 273.490076 -238.872137 
L 280.305344 -236.364996 
L 287.120611 -253.209329 
L 293.935878 -271.423261 
L 300.751145 -270.655126 
L 307.566412 -265.349275 
L 314.381679 -259.809599 
L 321.196947 -269.745532 
L 328.012214 -264.871886 
L 334.827481 -262.889323 
L 341.642748 -263.352152 
L 348.458015 -259.404079 
L 355.273282 -246.249769 
L 362.08855 -237.50174 
L 368.903817 -240.215409 
L 375.719084 -245.81455 
L 382.534351 -239.712674 
L 389.349618 -259.613195 
L 396.164885 -249.694333 
L 402.980153 -248.883614 
L 409.79542 -245.496357 
L 416.610687 -233.86078 
L 423.425954 -229.307173 
L 430.241221 -225.210141 
L 437.056489 -226.22532 
L 443.871756 -228.632824 
L 450.687023 -237.629841 
L 457.50229 -231.35557 
L 464.317557 -220.666197 
L 471.132824 -219.905667 
L 477.948092 -232.059455 
L 484.763359 -229.962711 
L 491.578626 -229.698566 
L 498.393893 -228.408148 
L 505.20916 -227.598751 
L 512.024427 -220.344229 
L 518.839695 -218.557035 
L 525.654962 -220.940767 
L 532.470229 -227.780637 
L 539.285496 -234.10679 
L 546.100763 -228.966421 
L 552.916031 -220.620986 
L 559.731298 -224.23652 
L 566.546565 -228.065105 
L 573.361832 -234.732327 
L 580.177099 -259.378351 
L 586.992366 -261.877047 
L 593.807634 -255.89077 
L 600.622901 -252.990156 
L 607.438168 -243.464071 
L 614.253435 -235.530783 
L 621.068702 -240.132803 
L 627.883969 -237.503911 
L 634.699237 -245.819904 
L 641.514504 -239.949251 
L 648.329771 -244.134674 
L 655.145038 -236.828949 
L 661.960305 -232.005563 
L 668.775573 -251.332367 
L 675.59084 -269.219002 
L 682.406107 -256.439349 
L 689.221374 -281.385549 
L 696.036641 -296.797843 
L 702.851908 -285.200826 
L 709.667176 -301.570806 
L 716.482443 -312.034719 
L 723.29771 -338.195751 
L 730.112977 -353.307828 
L 736.928244 -372.649911 
L 743.743511 -382.420968 
L 750.558779 -348.065976 
L 757.374046 -349.730258 
L 764.189313 -368.947147 
L 771.00458 -359.456108 
L 777.819847 -353.059891 
L 784.635115 -343.988886 
L 791.450382 -284.780641 
L 798.265649 -299.572577 
L 805.080916 -245.193314 
L 811.896183 -263.410399 
L 818.71145 -256.111152 
L 825.526718 -259.252591 
L 832.341985 -270.729438 
L 839.157252 -250.065091 
L 845.972519 -258.055982 
L 852.787786 -267.187496 
L 859.603053 -242.675511 
L 866.418321 -269.146964 
L 873.233588 -285.938638 
L 880.048855 -285.212186 
L 886.864122 -259.690462 
L 893.679389 -225.89551 
L 900.494656 -241.364824 
L 907.309924 -235.397444 
L 914.125191 -228.614801 
L 920.940458 -246.389016 
L 927.755725 -194.932323 
L 934.570992 -205.871528 
L 941.38626 -210.024198 
L 948.201527 -170.532892 
L 955.016794 -162.981554 
L 961.832061 -159.590403 
L 968.647328 -189.60058 
L 975.462595 -168.853278 
L 982.277863 -162.97923 
L 989.09313 -150.39437 
L 995.908397 -155.529715 
L 1002.723664 -145.047273 
L 1009.538931 -218.49505 
L 1016.354198 -253.881934 
L 1023.169466 -252.783974 
L 1029.984733 -213.257801 
L 1036.8 -175.013032 
L 1036.8 -304.184791 
L 1036.8 -304.184791 
L 1029.984733 -342.429561 
L 1023.169466 -381.955733 
L 1016.354198 -383.053693 
L 1009.538931 -347.666809 
L 1002.723664 -274.219032 
L 995.908397 -284.701475 
L 989.09313 -279.566129 
L 982.277863 -292.15099 
L 975.462595 -298.025038 
L 968.647328 -318.772339 
L 961.832061 -288.762162 
L 955.016794 -292.153313 
L 948.201527 -299.704651 
L 941.38626 -339.195958 
L 934.570992 -335.043288 
L 927.755725 -324.104082 
L 920.940458 -375.560775 
L 914.125191 -357.786561 
L 907.309924 -364.569204 
L 900.494656 -370.536584 
L 893.679389 -355.067269 
L 886.864122 -388.862221 
L 880.048855 -414.383945 
L 873.233588 -415.110397 
L 866.418321 -398.318724 
L 859.603053 -371.84727 
L 852.787786 -396.359255 
L 845.972519 -387.227741 
L 839.157252 -379.236851 
L 832.341985 -399.901198 
L 825.526718 -388.42435 
L 818.71145 -385.282912 
L 811.896183 -392.582158 
L 805.080916 -374.365073 
L 798.265649 -428.744336 
L 791.450382 -413.9524 
L 784.635115 -473.160646 
L 777.819847 -482.231651 
L 771.00458 -488.627868 
L 764.189313 -498.118906 
L 757.374046 -478.902017 
L 750.558779 -477.237735 
L 743.743511 -511.592727 
L 736.928244 -501.821671 
L 730.112977 -482.479587 
L 723.29771 -467.367511 
L 716.482443 -441.206478 
L 709.667176 -430.742565 
L 702.851908 -414.372586 
L 696.036641 -425.969603 
L 689.221374 -410.557308 
L 682.406107 -385.611108 
L 675.59084 -398.390761 
L 668.775573 -380.504127 
L 661.960305 -361.177322 
L 655.145038 -366.000709 
L 648.329771 -373.306433 
L 641.514504 -369.12101 
L 634.699237 -374.991663 
L 627.883969 -366.67567 
L 621.068702 -369.304562 
L 614.253435 -364.702542 
L 607.438168 -372.63583 
L 600.622901 -382.161915 
L 593.807634 -385.062527 
L 586.992366 -391.048805 
L 580.177099 -388.550107 
L 573.361832 -363.904082 
L 566.546565 -357.236858 
L 559.731298 -353.408271 
L 552.916031 -349.792735 
L 546.100763 -358.138167 
L 539.285496 -363.278534 
L 532.470229 -356.952378 
L 525.654962 -350.112506 
L 518.839695 -347.728773 
L 512.024427 -349.515966 
L 505.20916 -356.770489 
L 498.393893 -357.579886 
L 491.578626 -358.8703 
L 484.763359 -359.134437 
L 477.948092 -361.231161 
L 471.132824 -349.077333 
L 464.317557 -349.837793 
L 457.50229 -360.527047 
L 450.687023 -366.801132 
L 443.871756 -357.803836 
L 437.056489 -355.395936 
L 430.241221 -354.380215 
L 423.425954 -358.476536 
L 416.610687 -363.029248 
L 409.79542 -374.663749 
L 402.980153 -378.049773 
L 396.164885 -378.859156 
L 389.349618 -388.776669 
L 382.534351 -368.87491 
L 375.719084 -374.975792 
L 368.903817 -369.37602 
L 362.08855 -366.662113 
L 355.273282 -375.41014 
L 348.458015 -388.564181 
L 341.642748 -392.510663 
L 334.827481 -392.043037 
L 328.012214 -394.014564 
L 321.196947 -398.866389 
L 314.381679 -388.89146 
L 307.566412 -394.366465 
L 300.751145 -399.571298 
L 293.935878 -400.18947 
L 287.120611 -381.762825 
L 280.305344 -364.629348 
L 273.490076 -366.759396 
L 266.674809 -355.782653 
L 259.859542 -355.071889 
L 253.044275 -354.96861 
L 246.229008 -355.167244 
L 239.41374 -351.649841 
L 232.598473 -346.463742 
L 225.783206 -338.50518 
L 218.967939 -328.768158 
L 212.152672 -327.967187 
L 205.337405 -328.443582 
L 198.522137 -323.877147 
L 191.70687 -320.279321 
L 184.891603 -309.591523 
L 178.076336 -303.496752 
L 171.261069 -301.973457 
L 164.445802 -296.533864 
L 157.630534 -287.600017 
L 150.815267 -279.495255 
L 144 -268.287718 
z
" id="me6dc80c10b" style="stroke:#ff4c00;stroke-opacity:0.05;"/>
    </defs>
    <g clip-path="url(#pd8e42a06b6)">
     <use style="fill:#ff4c00;fill-opacity:0.05;stroke:#ff4c00;stroke-opacity:0.05;" x="0" xlink:href="#me6dc80c10b" y="1152"/>
    </g>
   </g>
   <g id="matplotlib.axis_3">
    <g id="xtick_24">
     <g id="line2d_37">
      <g>
       <use style="stroke:#000000;stroke-width:0.8;" x="144" xlink:href="#me25971a4c5" y="1025.28"/>
      </g>
     </g>
     <g id="text_19">
      <!-- Apr -->
      <g transform="translate(135.35 1039.878438)scale(0.1 -0.1)">
       <use xlink:href="#DejaVuSans-65"/>
       <use x="68.408203" xlink:href="#DejaVuSans-112"/>
       <use x="131.884766" xlink:href="#DejaVuSans-114"/>
      </g>
      <!-- 2020 -->
      <g transform="translate(131.275 1051.07625)scale(0.1 -0.1)">
       <use xlink:href="#DejaVuSans-50"/>
       <use x="63.623047" xlink:href="#DejaVuSans-48"/>
       <use x="127.246094" xlink:href="#DejaVuSans-50"/>
       <use x="190.869141" xlink:href="#DejaVuSans-48"/>
      </g>
     </g>
    </g>
    <g id="xtick_25">
     <g id="line2d_38">
      <g>
       <use style="stroke:#000000;stroke-width:0.8;" x="348.458015" xlink:href="#me25971a4c5" y="1025.28"/>
      </g>
     </g>
     <g id="text_20">
      <!-- May -->
      <g transform="translate(338.120515 1039.878438)scale(0.1 -0.1)">
       <use xlink:href="#DejaVuSans-77"/>
       <use x="86.279297" xlink:href="#DejaVuSans-97"/>
       <use x="147.558594" xlink:href="#DejaVuSans-121"/>
      </g>
     </g>
    </g>
    <g id="xtick_26">
     <g id="line2d_39">
      <g>
       <use style="stroke:#000000;stroke-width:0.8;" x="559.731298" xlink:href="#me25971a4c5" y="1025.28"/>
      </g>
     </g>
     <g id="text_21">
      <!-- Jun -->
      <g transform="translate(551.918798 1039.878438)scale(0.1 -0.1)">
       <use xlink:href="#DejaVuSans-74"/>
       <use x="29.492188" xlink:href="#DejaVuSans-117"/>
       <use x="92.871094" xlink:href="#DejaVuSans-110"/>
      </g>
     </g>
    </g>
    <g id="xtick_27">
     <g id="line2d_40">
      <g>
       <use style="stroke:#000000;stroke-width:0.8;" x="764.189313" xlink:href="#me25971a4c5" y="1025.28"/>
      </g>
     </g>
     <g id="text_22">
      <!-- Jul -->
      <g transform="translate(758.1565 1039.878438)scale(0.1 -0.1)">
       <use xlink:href="#DejaVuSans-74"/>
       <use x="29.492188" xlink:href="#DejaVuSans-117"/>
       <use x="92.871094" xlink:href="#DejaVuSans-108"/>
      </g>
     </g>
    </g>
    <g id="xtick_28">
     <g id="line2d_41">
      <g>
       <use style="stroke:#000000;stroke-width:0.8;" x="975.462595" xlink:href="#me25971a4c5" y="1025.28"/>
      </g>
     </g>
     <g id="text_23">
      <!-- Aug -->
      <g transform="translate(965.699314 1039.878438)scale(0.1 -0.1)">
       <use xlink:href="#DejaVuSans-65"/>
       <use x="68.408203" xlink:href="#DejaVuSans-117"/>
       <use x="131.787109" xlink:href="#DejaVuSans-103"/>
      </g>
     </g>
    </g>
    <g id="xtick_29">
     <g id="line2d_42">
      <g>
       <use style="stroke:#000000;stroke-width:0.8;" x="1036.8" xlink:href="#me25971a4c5" y="1025.28"/>
      </g>
     </g>
    </g>
    <g id="xtick_30">
     <g id="line2d_43">
      <g>
       <use style="stroke:#000000;stroke-width:0.6;" x="178.076336" xlink:href="#m87bef1bdfb" y="1025.28"/>
      </g>
     </g>
    </g>
    <g id="xtick_31">
     <g id="line2d_44">
      <g>
       <use style="stroke:#000000;stroke-width:0.6;" x="225.783206" xlink:href="#m87bef1bdfb" y="1025.28"/>
      </g>
     </g>
    </g>
    <g id="xtick_32">
     <g id="line2d_45">
      <g>
       <use style="stroke:#000000;stroke-width:0.6;" x="273.490076" xlink:href="#m87bef1bdfb" y="1025.28"/>
      </g>
     </g>
    </g>
    <g id="xtick_33">
     <g id="line2d_46">
      <g>
       <use style="stroke:#000000;stroke-width:0.6;" x="321.196947" xlink:href="#m87bef1bdfb" y="1025.28"/>
      </g>
     </g>
    </g>
    <g id="xtick_34">
     <g id="line2d_47">
      <g>
       <use style="stroke:#000000;stroke-width:0.6;" x="368.903817" xlink:href="#m87bef1bdfb" y="1025.28"/>
      </g>
     </g>
    </g>
    <g id="xtick_35">
     <g id="line2d_48">
      <g>
       <use style="stroke:#000000;stroke-width:0.6;" x="416.610687" xlink:href="#m87bef1bdfb" y="1025.28"/>
      </g>
     </g>
    </g>
    <g id="xtick_36">
     <g id="line2d_49">
      <g>
       <use style="stroke:#000000;stroke-width:0.6;" x="464.317557" xlink:href="#m87bef1bdfb" y="1025.28"/>
      </g>
     </g>
    </g>
    <g id="xtick_37">
     <g id="line2d_50">
      <g>
       <use style="stroke:#000000;stroke-width:0.6;" x="512.024427" xlink:href="#m87bef1bdfb" y="1025.28"/>
      </g>
     </g>
    </g>
    <g id="xtick_38">
     <g id="line2d_51">
      <g>
       <use style="stroke:#000000;stroke-width:0.6;" x="607.438168" xlink:href="#m87bef1bdfb" y="1025.28"/>
      </g>
     </g>
    </g>
    <g id="xtick_39">
     <g id="line2d_52">
      <g>
       <use style="stroke:#000000;stroke-width:0.6;" x="655.145038" xlink:href="#m87bef1bdfb" y="1025.28"/>
      </g>
     </g>
    </g>
    <g id="xtick_40">
     <g id="line2d_53">
      <g>
       <use style="stroke:#000000;stroke-width:0.6;" x="702.851908" xlink:href="#m87bef1bdfb" y="1025.28"/>
      </g>
     </g>
    </g>
    <g id="xtick_41">
     <g id="line2d_54">
      <g>
       <use style="stroke:#000000;stroke-width:0.6;" x="750.558779" xlink:href="#m87bef1bdfb" y="1025.28"/>
      </g>
     </g>
    </g>
    <g id="xtick_42">
     <g id="line2d_55">
      <g>
       <use style="stroke:#000000;stroke-width:0.6;" x="798.265649" xlink:href="#m87bef1bdfb" y="1025.28"/>
      </g>
     </g>
    </g>
    <g id="xtick_43">
     <g id="line2d_56">
      <g>
       <use style="stroke:#000000;stroke-width:0.6;" x="845.972519" xlink:href="#m87bef1bdfb" y="1025.28"/>
      </g>
     </g>
    </g>
    <g id="xtick_44">
     <g id="line2d_57">
      <g>
       <use style="stroke:#000000;stroke-width:0.6;" x="893.679389" xlink:href="#m87bef1bdfb" y="1025.28"/>
      </g>
     </g>
    </g>
    <g id="xtick_45">
     <g id="line2d_58">
      <g>
       <use style="stroke:#000000;stroke-width:0.6;" x="941.38626" xlink:href="#m87bef1bdfb" y="1025.28"/>
      </g>
     </g>
    </g>
    <g id="xtick_46">
     <g id="line2d_59">
      <g>
       <use style="stroke:#000000;stroke-width:0.6;" x="989.09313" xlink:href="#m87bef1bdfb" y="1025.28"/>
      </g>
     </g>
    </g>
    <g id="text_24">
     <!-- Date -->
     <g transform="translate(578.449219 1064.754375)scale(0.1 -0.1)">
      <use xlink:href="#DejaVuSans-68"/>
      <use x="77.001953" xlink:href="#DejaVuSans-97"/>
      <use x="138.28125" xlink:href="#DejaVuSans-116"/>
      <use x="177.490234" xlink:href="#DejaVuSans-101"/>
     </g>
    </g>
   </g>
   <g id="matplotlib.axis_4">
    <g id="ytick_8">
     <g id="line2d_60">
      <g>
       <use style="stroke:#000000;stroke-width:0.8;" x="144" xlink:href="#mbd6902827d" y="1024.364575"/>
      </g>
     </g>
     <g id="text_25">
      <!-- 30 -->
      <defs>
       <path d="M 10.59375 35.5 
L 73.1875 35.5 
L 73.1875 27.203125 
L 10.59375 27.203125 
z
" id="DejaVuSans-8722"/>
      </defs>
      <g transform="translate(115.895313 1028.163794)scale(0.1 -0.1)">
       <use xlink:href="#DejaVuSans-8722"/>
       <use x="83.789062" xlink:href="#DejaVuSans-51"/>
       <use x="147.412109" xlink:href="#DejaVuSans-48"/>
      </g>
     </g>
    </g>
    <g id="ytick_9">
     <g id="line2d_61">
      <g>
       <use style="stroke:#000000;stroke-width:0.8;" x="144" xlink:href="#mbd6902827d" y="967.74232"/>
      </g>
     </g>
     <g id="text_26">
      <!-- 20 -->
      <g transform="translate(115.895313 971.541539)scale(0.1 -0.1)">
       <use xlink:href="#DejaVuSans-8722"/>
       <use x="83.789062" xlink:href="#DejaVuSans-50"/>
       <use x="147.412109" xlink:href="#DejaVuSans-48"/>
      </g>
     </g>
    </g>
    <g id="ytick_10">
     <g id="line2d_62">
      <g>
       <use style="stroke:#000000;stroke-width:0.8;" x="144" xlink:href="#mbd6902827d" y="911.120065"/>
      </g>
     </g>
     <g id="text_27">
      <!-- 10 -->
      <g transform="translate(115.895313 914.919284)scale(0.1 -0.1)">
       <use xlink:href="#DejaVuSans-8722"/>
       <use x="83.789062" xlink:href="#DejaVuSans-49"/>
       <use x="147.412109" xlink:href="#DejaVuSans-48"/>
      </g>
     </g>
    </g>
    <g id="ytick_11">
     <g id="line2d_63">
      <g>
       <use style="stroke:#000000;stroke-width:0.8;" x="144" xlink:href="#mbd6902827d" y="854.49781"/>
      </g>
     </g>
     <g id="text_28">
      <!-- 0 -->
      <g transform="translate(130.6375 858.297029)scale(0.1 -0.1)">
       <use xlink:href="#DejaVuSans-48"/>
      </g>
     </g>
    </g>
    <g id="ytick_12">
     <g id="line2d_64">
      <g>
       <use style="stroke:#000000;stroke-width:0.8;" x="144" xlink:href="#mbd6902827d" y="797.875555"/>
      </g>
     </g>
     <g id="text_29">
      <!-- 10 -->
      <g transform="translate(124.275 801.674774)scale(0.1 -0.1)">
       <use xlink:href="#DejaVuSans-49"/>
       <use x="63.623047" xlink:href="#DejaVuSans-48"/>
      </g>
     </g>
    </g>
    <g id="ytick_13">
     <g id="line2d_65">
      <g>
       <use style="stroke:#000000;stroke-width:0.8;" x="144" xlink:href="#mbd6902827d" y="741.2533"/>
      </g>
     </g>
     <g id="text_30">
      <!-- 20 -->
      <g transform="translate(124.275 745.052519)scale(0.1 -0.1)">
       <use xlink:href="#DejaVuSans-50"/>
       <use x="63.623047" xlink:href="#DejaVuSans-48"/>
      </g>
     </g>
    </g>
    <g id="ytick_14">
     <g id="line2d_66">
      <g>
       <use style="stroke:#000000;stroke-width:0.8;" x="144" xlink:href="#mbd6902827d" y="684.631045"/>
      </g>
     </g>
     <g id="text_31">
      <!-- 30 -->
      <g transform="translate(124.275 688.430264)scale(0.1 -0.1)">
       <use xlink:href="#DejaVuSans-51"/>
       <use x="63.623047" xlink:href="#DejaVuSans-48"/>
      </g>
     </g>
    </g>
    <g id="ytick_15">
     <g id="line2d_67">
      <g>
       <use style="stroke:#000000;stroke-width:0.8;" x="144" xlink:href="#mbd6902827d" y="628.00879"/>
      </g>
     </g>
     <g id="text_32">
      <!-- 40 -->
      <g transform="translate(124.275 631.808009)scale(0.1 -0.1)">
       <use xlink:href="#DejaVuSans-52"/>
       <use x="63.623047" xlink:href="#DejaVuSans-48"/>
      </g>
     </g>
    </g>
    <g id="text_33">
     <!-- $ \dot x $ -->
     <defs>
      <path d="M -29.59375 75.984375 
L -20.609375 75.984375 
L -20.609375 64.59375 
L -29.59375 64.59375 
z
M -25 56 
z
" id="DejaVuSans-775"/>
     </defs>
     <g transform="translate(109.815625 826.83)rotate(-90)scale(0.1 -0.1)">
      <use transform="translate(64.242188 12.015625)" xlink:href="#DejaVuSans-775"/>
      <use transform="translate(0 0.828125)" xlink:href="#DejaVuSans-Oblique-120"/>
     </g>
    </g>
   </g>
   <g id="line2d_68">
    <path clip-path="url(#pd8e42a06b6)" d="M 144 909.65359 
L 150.815267 908.691042 
L 157.630534 908.30823 
L 164.445802 905.481636 
L 171.261069 904.735518 
L 178.076336 906.535776 
L 184.891603 902.503675 
L 191.70687 892.871541 
L 198.522137 889.671927 
L 205.337405 885.182756 
L 212.152672 885.659142 
L 218.967939 884.913839 
L 225.783206 875.334105 
L 232.598473 867.628142 
L 239.41374 862.759982 
L 246.229008 859.590419 
L 253.044275 860.135446 
L 259.859542 860.35377 
L 266.674809 859.925172 
L 273.490076 849.184233 
L 280.305344 851.502828 
L 287.120611 834.513923 
L 293.935878 816.193635 
L 300.751145 816.886788 
L 307.566412 822.14213 
L 314.381679 827.64947 
L 321.196947 817.69404 
L 328.012214 822.556775 
L 334.827481 824.53382 
L 341.642748 824.068592 
L 348.458015 828.01587 
L 355.273282 841.170045 
L 362.08855 849.918073 
L 368.903817 847.204286 
L 375.719084 841.604829 
L 382.534351 847.706208 
L 389.349618 827.805068 
L 396.164885 837.723256 
L 402.980153 838.533307 
L 409.79542 841.919947 
L 416.610687 853.554986 
L 423.425954 858.108145 
L 430.241221 862.204822 
L 437.056489 861.189372 
L 443.871756 858.78167 
L 450.687023 849.784514 
L 457.50229 856.058692 
L 464.317557 866.748005 
L 471.132824 867.5085 
L 477.948092 855.354692 
L 484.763359 857.451426 
L 491.578626 857.715567 
L 498.393893 859.005983 
L 505.20916 859.81538 
L 512.024427 867.069902 
L 518.839695 868.857096 
L 525.654962 866.473364 
L 532.470229 859.633493 
L 539.285496 853.307338 
L 546.100763 858.447706 
L 552.916031 866.79314 
L 559.731298 863.177604 
L 566.546565 859.349019 
L 573.361832 852.681796 
L 580.177099 828.035771 
L 586.992366 825.537074 
L 593.807634 831.523351 
L 600.622901 834.423965 
L 607.438168 843.950049 
L 614.253435 851.883338 
L 621.068702 847.281317 
L 627.883969 849.91021 
L 634.699237 841.594217 
L 641.514504 847.464869 
L 648.329771 843.279446 
L 655.145038 850.585171 
L 661.960305 855.408558 
L 668.775573 836.081753 
L 675.59084 818.195119 
L 682.406107 830.974771 
L 689.221374 806.028571 
L 696.036641 790.616277 
L 702.851908 802.213294 
L 709.667176 785.843315 
L 716.482443 775.379402 
L 723.29771 749.218369 
L 730.112977 734.106292 
L 736.928244 714.764209 
L 743.743511 704.993152 
L 750.558779 739.348145 
L 757.374046 737.683863 
L 764.189313 718.466973 
L 771.00458 727.958012 
L 777.819847 734.354229 
L 784.635115 743.425234 
L 791.450382 802.633479 
L 798.265649 787.841543 
L 805.080916 842.220806 
L 811.896183 824.003722 
L 818.71145 831.302968 
L 825.526718 828.161529 
L 832.341985 816.684682 
L 839.157252 837.349029 
L 845.972519 829.358138 
L 852.787786 820.226624 
L 859.603053 844.738609 
L 866.418321 818.267156 
L 873.233588 801.475483 
L 880.048855 802.201935 
L 886.864122 827.723658 
L 893.679389 861.518611 
L 900.494656 846.049296 
L 907.309924 852.016676 
L 914.125191 858.799319 
L 920.940458 841.025104 
L 927.755725 892.481798 
L 934.570992 881.542592 
L 941.38626 877.389922 
L 948.201527 916.881228 
L 955.016794 924.432566 
L 961.832061 927.823718 
L 968.647328 897.813541 
L 975.462595 918.560842 
L 982.277863 924.43489 
L 989.09313 937.01975 
L 995.908397 931.884405 
L 1002.723664 942.366848 
L 1009.538931 868.919071 
L 1016.354198 833.532186 
L 1023.169466 834.630147 
L 1029.984733 874.156319 
L 1036.8 912.401089 
L 1036.8 912.401089 
" style="fill:none;stroke:#1f77b4;stroke-linecap:square;stroke-width:1.5;"/>
   </g>
   <g id="patch_10">
    <path d="M 144 1025.28 
L 144 622.08 
" style="fill:none;stroke:#000000;stroke-linecap:square;stroke-linejoin:miter;stroke-width:0.8;"/>
   </g>
   <g id="patch_11">
    <path d="M 1036.8 1025.28 
L 1036.8 622.08 
" style="fill:none;stroke:#000000;stroke-linecap:square;stroke-linejoin:miter;stroke-width:0.8;"/>
   </g>
   <g id="patch_12">
    <path d="M 144 1025.28 
L 1036.8 1025.28 
" style="fill:none;stroke:#000000;stroke-linecap:square;stroke-linejoin:miter;stroke-width:0.8;"/>
   </g>
   <g id="patch_13">
    <path d="M 144 622.08 
L 1036.8 622.08 
" style="fill:none;stroke:#000000;stroke-linecap:square;stroke-linejoin:miter;stroke-width:0.8;"/>
   </g>
   <g id="text_34">
    <!-- Figure last updated 2020-08-12 -->
    <defs>
     <path d="M 31.78125 34.625 
Q 24.75 34.625 20.71875 30.859375 
Q 16.703125 27.09375 16.703125 20.515625 
Q 16.703125 13.921875 20.71875 10.15625 
Q 24.75 6.390625 31.78125 6.390625 
Q 38.8125 6.390625 42.859375 10.171875 
Q 46.921875 13.96875 46.921875 20.515625 
Q 46.921875 27.09375 42.890625 30.859375 
Q 38.875 34.625 31.78125 34.625 
z
M 21.921875 38.8125 
Q 15.578125 40.375 12.03125 44.71875 
Q 8.5 49.078125 8.5 55.328125 
Q 8.5 64.0625 14.71875 69.140625 
Q 20.953125 74.21875 31.78125 74.21875 
Q 42.671875 74.21875 48.875 69.140625 
Q 55.078125 64.0625 55.078125 55.328125 
Q 55.078125 49.078125 51.53125 44.71875 
Q 48 40.375 41.703125 38.8125 
Q 48.828125 37.15625 52.796875 32.3125 
Q 56.78125 27.484375 56.78125 20.515625 
Q 56.78125 9.90625 50.3125 4.234375 
Q 43.84375 -1.421875 31.78125 -1.421875 
Q 19.734375 -1.421875 13.25 4.234375 
Q 6.78125 9.90625 6.78125 20.515625 
Q 6.78125 27.484375 10.78125 32.3125 
Q 14.796875 37.15625 21.921875 38.8125 
z
M 18.3125 54.390625 
Q 18.3125 48.734375 21.84375 45.5625 
Q 25.390625 42.390625 31.78125 42.390625 
Q 38.140625 42.390625 41.71875 45.5625 
Q 45.3125 48.734375 45.3125 54.390625 
Q 45.3125 60.0625 41.71875 63.234375 
Q 38.140625 66.40625 31.78125 66.40625 
Q 25.390625 66.40625 21.84375 63.234375 
Q 18.3125 60.0625 18.3125 54.390625 
z
" id="DejaVuSans-56"/>
    </defs>
    <g transform="translate(49.32 1105.92)scale(0.12 -0.12)">
     <use xlink:href="#DejaVuSans-70"/>
     <use x="50.269531" xlink:href="#DejaVuSans-105"/>
     <use x="78.052734" xlink:href="#DejaVuSans-103"/>
     <use x="141.529297" xlink:href="#DejaVuSans-117"/>
     <use x="204.908203" xlink:href="#DejaVuSans-114"/>
     <use x="243.771484" xlink:href="#DejaVuSans-101"/>
     <use x="305.294922" xlink:href="#DejaVuSans-32"/>
     <use x="337.082031" xlink:href="#DejaVuSans-108"/>
     <use x="364.865234" xlink:href="#DejaVuSans-97"/>
     <use x="426.144531" xlink:href="#DejaVuSans-115"/>
     <use x="478.244141" xlink:href="#DejaVuSans-116"/>
     <use x="517.453125" xlink:href="#DejaVuSans-32"/>
     <use x="549.240234" xlink:href="#DejaVuSans-117"/>
     <use x="612.619141" xlink:href="#DejaVuSans-112"/>
     <use x="676.095703" xlink:href="#DejaVuSans-100"/>
     <use x="739.572266" xlink:href="#DejaVuSans-97"/>
     <use x="800.851562" xlink:href="#DejaVuSans-116"/>
     <use x="840.060547" xlink:href="#DejaVuSans-101"/>
     <use x="901.583984" xlink:href="#DejaVuSans-100"/>
     <use x="965.060547" xlink:href="#DejaVuSans-32"/>
     <use x="996.847656" xlink:href="#DejaVuSans-50"/>
     <use x="1060.470703" xlink:href="#DejaVuSans-48"/>
     <use x="1124.09375" xlink:href="#DejaVuSans-50"/>
     <use x="1187.716797" xlink:href="#DejaVuSans-48"/>
     <use x="1251.339844" xlink:href="#DejaVuSans-45"/>
     <use x="1287.423828" xlink:href="#DejaVuSans-48"/>
     <use x="1351.046875" xlink:href="#DejaVuSans-56"/>
     <use x="1414.669922" xlink:href="#DejaVuSans-45"/>
     <use x="1450.753906" xlink:href="#DejaVuSans-49"/>
     <use x="1514.376953" xlink:href="#DejaVuSans-50"/>
    </g>
   </g>
   <g id="text_35">
    <!-- Kalman Filter Estimate of $ \dot x $ -->
    <g transform="translate(508.8 616.08)scale(0.12 -0.12)">
     <use transform="translate(0 0.828125)" xlink:href="#DejaVuSans-75"/>
     <use transform="translate(65.576172 0.828125)" xlink:href="#DejaVuSans-97"/>
     <use transform="translate(126.855469 0.828125)" xlink:href="#DejaVuSans-108"/>
     <use transform="translate(154.638672 0.828125)" xlink:href="#DejaVuSans-109"/>
     <use transform="translate(252.050781 0.828125)" xlink:href="#DejaVuSans-97"/>
     <use transform="translate(313.330078 0.828125)" xlink:href="#DejaVuSans-110"/>
     <use transform="translate(376.708984 0.828125)" xlink:href="#DejaVuSans-32"/>
     <use transform="translate(408.496094 0.828125)" xlink:href="#DejaVuSans-70"/>
     <use transform="translate(466.015625 0.828125)" xlink:href="#DejaVuSans-105"/>
     <use transform="translate(493.798828 0.828125)" xlink:href="#DejaVuSans-108"/>
     <use transform="translate(521.582031 0.828125)" xlink:href="#DejaVuSans-116"/>
     <use transform="translate(560.791016 0.828125)" xlink:href="#DejaVuSans-101"/>
     <use transform="translate(622.314453 0.828125)" xlink:href="#DejaVuSans-114"/>
     <use transform="translate(663.427734 0.828125)" xlink:href="#DejaVuSans-32"/>
     <use transform="translate(695.214844 0.828125)" xlink:href="#DejaVuSans-69"/>
     <use transform="translate(758.398438 0.828125)" xlink:href="#DejaVuSans-115"/>
     <use transform="translate(810.498047 0.828125)" xlink:href="#DejaVuSans-116"/>
     <use transform="translate(849.707031 0.828125)" xlink:href="#DejaVuSans-105"/>
     <use transform="translate(877.490234 0.828125)" xlink:href="#DejaVuSans-109"/>
     <use transform="translate(974.902344 0.828125)" xlink:href="#DejaVuSans-97"/>
     <use transform="translate(1036.181641 0.828125)" xlink:href="#DejaVuSans-116"/>
     <use transform="translate(1075.390625 0.828125)" xlink:href="#DejaVuSans-101"/>
     <use transform="translate(1136.914062 0.828125)" xlink:href="#DejaVuSans-32"/>
     <use transform="translate(1168.701172 0.828125)" xlink:href="#DejaVuSans-111"/>
     <use transform="translate(1229.882812 0.828125)" xlink:href="#DejaVuSans-102"/>
     <use transform="translate(1265.087891 0.828125)" xlink:href="#DejaVuSans-32"/>
     <use transform="translate(1361.117188 12.015625)" xlink:href="#DejaVuSans-775"/>
     <use transform="translate(1296.875 0.828125)" xlink:href="#DejaVuSans-Oblique-120"/>
    </g>
   </g>
   <g id="legend_2">
    <g id="patch_14">
     <path d="M 151 659.43625 
L 319 659.43625 
Q 321 659.43625 321 657.43625 
L 321 629.08 
Q 321 627.08 319 627.08 
L 151 627.08 
Q 149 627.08 149 629.08 
L 149 657.43625 
Q 149 659.43625 151 659.43625 
z
" style="fill:#ffffff;opacity:0.8;stroke:#cccccc;stroke-linejoin:miter;"/>
    </g>
    <g id="line2d_69">
     <path d="M 153 635.178437 
L 173 635.178437 
" style="fill:none;stroke:#1f77b4;stroke-linecap:square;stroke-width:1.5;"/>
    </g>
    <g id="line2d_70"/>
    <g id="text_36">
     <!-- Kalman Filter Estimate of $ \dot x $ -->
     <g transform="translate(181 638.678437)scale(0.1 -0.1)">
      <use transform="translate(0 0.828125)" xlink:href="#DejaVuSans-75"/>
      <use transform="translate(65.576172 0.828125)" xlink:href="#DejaVuSans-97"/>
      <use transform="translate(126.855469 0.828125)" xlink:href="#DejaVuSans-108"/>
      <use transform="translate(154.638672 0.828125)" xlink:href="#DejaVuSans-109"/>
      <use transform="translate(252.050781 0.828125)" xlink:href="#DejaVuSans-97"/>
      <use transform="translate(313.330078 0.828125)" xlink:href="#DejaVuSans-110"/>
      <use transform="translate(376.708984 0.828125)" xlink:href="#DejaVuSans-32"/>
      <use transform="translate(408.496094 0.828125)" xlink:href="#DejaVuSans-70"/>
      <use transform="translate(466.015625 0.828125)" xlink:href="#DejaVuSans-105"/>
      <use transform="translate(493.798828 0.828125)" xlink:href="#DejaVuSans-108"/>
      <use transform="translate(521.582031 0.828125)" xlink:href="#DejaVuSans-116"/>
      <use transform="translate(560.791016 0.828125)" xlink:href="#DejaVuSans-101"/>
      <use transform="translate(622.314453 0.828125)" xlink:href="#DejaVuSans-114"/>
      <use transform="translate(663.427734 0.828125)" xlink:href="#DejaVuSans-32"/>
      <use transform="translate(695.214844 0.828125)" xlink:href="#DejaVuSans-69"/>
      <use transform="translate(758.398438 0.828125)" xlink:href="#DejaVuSans-115"/>
      <use transform="translate(810.498047 0.828125)" xlink:href="#DejaVuSans-116"/>
      <use transform="translate(849.707031 0.828125)" xlink:href="#DejaVuSans-105"/>
      <use transform="translate(877.490234 0.828125)" xlink:href="#DejaVuSans-109"/>
      <use transform="translate(974.902344 0.828125)" xlink:href="#DejaVuSans-97"/>
      <use transform="translate(1036.181641 0.828125)" xlink:href="#DejaVuSans-116"/>
      <use transform="translate(1075.390625 0.828125)" xlink:href="#DejaVuSans-101"/>
      <use transform="translate(1136.914062 0.828125)" xlink:href="#DejaVuSans-32"/>
      <use transform="translate(1168.701172 0.828125)" xlink:href="#DejaVuSans-111"/>
      <use transform="translate(1229.882812 0.828125)" xlink:href="#DejaVuSans-102"/>
      <use transform="translate(1265.087891 0.828125)" xlink:href="#DejaVuSans-32"/>
      <use transform="translate(1361.117188 12.015625)" xlink:href="#DejaVuSans-775"/>
      <use transform="translate(1296.875 0.828125)" xlink:href="#DejaVuSans-Oblique-120"/>
     </g>
    </g>
    <g id="patch_15">
     <path d="M 153 653.356562 
L 173 653.356562 
L 173 646.356562 
L 153 646.356562 
z
" style="fill:#ff4c00;fill-opacity:0.05;stroke:#ff4c00;stroke-linejoin:miter;stroke-opacity:0.05;"/>
    </g>
    <g id="text_37">
     <!-- +/- 1$ \sigma $ -->
     <g transform="translate(181 653.356562)scale(0.1 -0.1)">
      <use transform="translate(0 0.09375)" xlink:href="#DejaVuSans-43"/>
      <use transform="translate(83.789062 0.09375)" xlink:href="#DejaVuSans-47"/>
      <use transform="translate(117.480469 0.09375)" xlink:href="#DejaVuSans-45"/>
      <use transform="translate(153.564453 0.09375)" xlink:href="#DejaVuSans-32"/>
      <use transform="translate(185.351562 0.09375)" xlink:href="#DejaVuSans-49"/>
      <use transform="translate(248.974609 0.09375)" xlink:href="#DejaVuSans-Oblique-963"/>
     </g>
    </g>
   </g>
  </g>
 </g>
 <defs>
  <clipPath id="pd45933d02d">
   <rect height="403.2" width="892.8" x="144" y="138.24"/>
  </clipPath>
  <clipPath id="pd8e42a06b6">
   <rect height="403.2" width="892.8" x="144" y="622.08"/>
  </clipPath>
 </defs>
</svg>
